/* XPM */
static char *_15b85e166c04761a22ede336c99b1c25XI935QyYQjYRDgH[] = {
/* columns rows colors chars-per-pixel */
"32 32 177 2 ",
"   c #070813",
".  c #0B0D1A",
"X  c #111322",
"o  c #131523",
"O  c #131624",
"+  c #141726",
"@  c #151827",
"#  c #131629",
"$  c #151828",
"%  c #161A2C",
"&  c #171A2C",
"*  c #181B2C",
"=  c #181A2F",
"-  c #191C30",
";  c #1B1E32",
":  c #1C1F34",
">  c #0A263C",
",  c #1C2034",
"<  c #1F233A",
"1  c #1F233B",
"2  c #11283F",
"3  c #20233B",
"4  c #20243B",
"5  c #21243D",
"6  c #22263F",
"7  c #292B3B",
"8  c #3A3B3D",
"9  c #082C43",
"0  c #162B43",
"q  c #112D45",
"w  c #132D46",
"e  c #192D47",
"r  c #1E2D47",
"t  c #003049",
"y  c #0D334D",
"u  c #18304B",
"i  c #023650",
"p  c #023A56",
"a  c #083955",
"s  c #0D3B57",
"d  c #033D59",
"f  c #023E5B",
"g  c #153652",
"h  c #1D3452",
"j  c #1B3654",
"k  c #123A57",
"l  c #183A58",
"z  c #1C3A58",
"x  c #232742",
"c  c #232842",
"v  c #242843",
"b  c #252A45",
"n  c #262B46",
"m  c #272B48",
"M  c #262C4A",
"N  c #272C4A",
"B  c #292E4B",
"V  c #2B2F4E",
"C  c #2A2F4F",
"Z  c #2B304F",
"A  c #2B3050",
"S  c #2A3051",
"D  c #2D3253",
"F  c #2E3355",
"G  c #2F3456",
"H  c #2F3557",
"J  c #2F3558",
"K  c #303658",
"L  c #31375A",
"P  c #32375B",
"I  c #32385B",
"U  c #33395F",
"Y  c #333A5F",
"T  c #343B60",
"R  c #343A61",
"E  c #363D65",
"W  c #383F67",
"Q  c #393F69",
"!  c #02405E",
"~  c #21405F",
"^  c #127258",
"/  c #034261",
"(  c #004363",
")  c #064565",
"_  c #03486A",
"`  c #044C6E",
"'  c #144161",
"]  c #1D486D",
"[  c #044E71",
"{  c #044F73",
"}  c #04547B",
"|  c #04557C",
" . c #384068",
".. c #39406A",
"X. c #3A426C",
"o. c #3C436E",
"O. c #727272",
"+. c #CB0C0C",
"@. c #8F5A05",
"#. c #8D7905",
"$. c #D76C0D",
"%. c #865053",
"&. c #4EB152",
"*. c #848217",
"=. c #D4930D",
"-. c #D0C220",
";. c #652097",
":. c #6F22A6",
">. c #045A84",
",. c #055A84",
"<. c #055E89",
"1. c #05608C",
"2. c #056493",
"3. c #066694",
"4. c #066795",
"5. c #066999",
"6. c #036D9F",
"7. c #066EA0",
"8. c #106EA1",
"9. c #0770A3",
"0. c #0773A6",
"q. c #0875A9",
"w. c #0876AB",
"e. c #0878AD",
"r. c #0879AF",
"t. c #087AB1",
"y. c #0B7AB0",
"u. c #097DB6",
"i. c #6547AB",
"p. c #1C91AF",
"a. c #0980BA",
"s. c #0981BB",
"d. c #0982BC",
"f. c #0A85BF",
"g. c #1B89BD",
"h. c #4D81AB",
"j. c #6192BC",
"k. c #0985C0",
"l. c #0A87C3",
"z. c #0A88C5",
"x. c #088AC7",
"c. c #0A8BC8",
"v. c #0A8BC9",
"b. c #098DCC",
"n. c #088ECD",
"m. c #0B8FCF",
"M. c #0B92D3",
"N. c #0B93D5",
"B. c #0B94D5",
"V. c #0A94D6",
"C. c #0C97DA",
"Z. c #0C97DB",
"A. c #268FCC",
"S. c #388EC6",
"D. c #3C93CD",
"F. c #4191C8",
"G. c #4595CC",
"H. c #5B92C0",
"J. c #5996C7",
"K. c #5C97C6",
"L. c #5997C8",
"P. c #5999CB",
"I. c #5F99C9",
"U. c #4099D4",
"Y. c #409DDA",
"T. c #599CD0",
"R. c #599DD2",
"E. c #599ED3",
"W. c #6798C2",
"Q. c #6B9CC7",
"!. c #619BCB",
"~. c #59A1D8",
"^. c #6BA1CF",
"/. c #6BA1D0",
"(. c #6BA6D7",
"). c #72A7D5",
"_. c #868C94",
/* pixels */
"L D D Z Z v n L F F x ; C L F D v 3 x : 3 < D F , L E ..X.U < B ",
"F D D B , * v D B n L U 6 C C : < n U Q U n n C ; F H H L D n v ",
"D D N 6 D R B 6 v v V v * v < ;.c ....R E C x n < C D H A D B 3 ",
"N N N L R E E c E m v : n R Q :.< E U H H ; < E C N B Z D D Z , ",
"6 < C A 6 : o ; n : : v v L L i., F D H n 4 E I H % < 6 6 6 : o ",
"H F c * * x D F n v E ..G % % g.o N C C x ; n Z < n T C % D F H ",
"..U Z , L X.X.X.L m R L R 5 v p.~ % c < H E D 6 * L U 6 n X.....",
"I Z < C X.E U H V : v V V * 0 &.^ < 6 B E E ..E B x D * T T U R ",
"< , o C U L J F : B m 6 ; < : -.*.6 6 C U H L R L % n % c B D D ",
"B D C < Z D D n n E X.L ; i t =.#.[   n L F H L 3 : < D Z x , @ ",
"D C Z c < < C , n X.E m O.3.( $.@.q._.8 6 C F C < Z E .. .U F < ",
"< @ < 6 L B < ; D X.F p 7.v.7.+.%.V.f.<.6 3 n : n U ..R T ....H ",
"c c I X.X.X.R x n C r 5.v.b.B.h.v.C.C.v.l E n % n o.U F H H L H ",
"; n E U U R ..B % ; > r.F.b./.(.Y.Y.~.C.f R L % B U D 6 6 v v v ",
"Z < H H H L L C : C l u.I.P.D.r.T.~.(.C.{ A H O * n n v O 6 D L ",
"D : A D D D B n 0 h } b.v.G.~.5.Q.C.Y.C.r.0 h O F E ..I : L U H ",
"D n % ; N N N e 0.9.| A.L.I.V.~.Y.~.~.~.t.,.l.y C B D D , D D D ",
"N 6 x c c < o k t.] | x.S.m.R.).~.(.U.C.t.7 8.s 6 x 4 4 * B D D ",
"6 Z E ..X.I A O < I ' s.j.S.D.^./.M.T.V.>.U F U ..R , Z C 3 O , ",
", U  .E R X.U c n I M 7.d.j.W.z.L.L.v.v.a U R L R I @ R E 4 v R ",
"6 C B n D N n O < N N ) l.f.z.!.b.b.!.9.- L F L H n % ..I 6 E H ",
"< n @ O ; % ; n c % , , 0.v.m.V.R.V.M.f v L F G D N : W H 3 C C ",
"* 6 ..X. .J 1 T  .L N A ! b.V.Z.C.C.t.X B F D D Z v n U Z 6 < < ",
"6 Z U I R  .A + 1 1 , , o 1.V.Z.C.l.w n * m C B B 4 D H B 6 Q Q ",
", n L F L L C 6 Z E T J 6 9 z.C.Z.[ R ..B * o C B , D D 6 6 H H ",
"6 n C D F F < B R ..X.X. .< _ C.t.# n C < < C H C 3 D n < A 6 ; ",
"I n 6 x B 6 % L E U I U L x # 7.f n C < o < 6 6 @ ; B ; R ..I c ",
"L L H B : x v : , N B 6 < ; % ` . N X.J < N E Q D : < x Z Z N < ",
"F W X.X.Q n v F X.D % N A <.d.b.f.3.g H 6 c I L n < Z N n c < n ",
"D L L U R C v X.R L 6 H / v.q.u 3.z.q.% n @ , , ; 6 X.X...J n c ",
"F D C H H n x R H F N : ; p ; m @ y w R U < L Q J N I I L H < C ",
"U H D D D n v L H C A < U R Z , < E X.R Z < I U H % < ; < < ; D "
};
