/* XPM */
static char *_a0110b0c20440d1a36c9aa02b168f30GXye0XV7sQEA2fYm[] = {
/* columns rows colors chars-per-pixel */
"32 32 164 2 ",
"   c #0C0E1A",
".  c #101222",
"X  c #131523",
"o  c #131626",
"O  c #141726",
"+  c #151827",
"@  c #131629",
"#  c #141729",
"$  c #151828",
"%  c #16192C",
"&  c #181B2C",
"*  c #181B2D",
"=  c #1B1E32",
"-  c #1B1F34",
";  c #1C1F34",
":  c #0D263A",
">  c #132135",
",  c #1C2034",
"<  c #1F233A",
"1  c #1F233B",
"2  c #20233B",
"3  c #20243B",
"4  c #20233D",
"5  c #22263F",
"6  c #282A39",
"7  c #3A3A3C",
"8  c #0D2B41",
"9  c #0E2B42",
"0  c #0B2D45",
"q  c #112C44",
"w  c #122D45",
"e  c #1A2E49",
"r  c #003049",
"t  c #0F344E",
"y  c #10344F",
"u  c #023650",
"i  c #0C3753",
"p  c #023A56",
"a  c #0B3A56",
"s  c #023E5B",
"d  c #053D5A",
"f  c #173450",
"g  c #163752",
"h  c #163A55",
"j  c #232742",
"k  c #232842",
"l  c #242843",
"z  c #262B46",
"x  c #272B48",
"c  c #272C4A",
"v  c #272D4C",
"b  c #292E4B",
"n  c #2B2F4E",
"m  c #2A2F4F",
"M  c #2B304F",
"N  c #2B3050",
"B  c #2D3253",
"V  c #2E3355",
"C  c #2F3456",
"Z  c #2F3557",
"A  c #263758",
"S  c #2F3558",
"D  c #31375A",
"F  c #31375C",
"G  c #32385B",
"H  c #33395F",
"J  c #343A60",
"K  c #343B60",
"L  c #343A61",
"P  c #363D65",
"I  c #383F67",
"U  c #393F69",
"Y  c #02405E",
"T  c #127258",
"R  c #034261",
"E  c #004363",
"W  c #074666",
"Q  c #03486A",
"!  c #044C6E",
"~  c #164263",
"^  c #194669",
"/  c #044E71",
"(  c #044E72",
")  c #044F73",
"_  c #04547B",
"`  c #04557C",
"'  c #384068",
"]  c #3A426C",
"[  c #3C436E",
"{  c #3C436F",
"}  c #727272",
"|  c #CB0C0C",
" . c #8F5A05",
".. c #8D7905",
"X. c #D76C0D",
"o. c #865053",
"O. c #4EB152",
"+. c #848217",
"@. c #D4930D",
"#. c #D0C220",
"$. c #652198",
"%. c #6F22A6",
"&. c #045A84",
"*. c #055E89",
"=. c #05608C",
"-. c #056493",
";. c #066694",
":. c #066795",
">. c #066898",
",. c #066EA0",
"<. c #076EA0",
"1. c #096DA0",
"2. c #0770A3",
"3. c #0771A3",
"4. c #0772A5",
"5. c #0773A6",
"6. c #0876AB",
"7. c #0778AE",
"8. c #0879AF",
"9. c #087AB1",
"0. c #097DB6",
"q. c #087EB6",
"w. c #6547AB",
"e. c #1C91AF",
"r. c #0982BC",
"t. c #0A85BF",
"y. c #1B89BD",
"u. c #4D81AB",
"i. c #6192BC",
"p. c #0A85C1",
"a. c #0A88C5",
"s. c #088AC7",
"d. c #0A8BC9",
"f. c #098DCC",
"g. c #0B8FCF",
"h. c #0B92D3",
"j. c #0A94D6",
"k. c #0C94D6",
"l. c #0C96D9",
"z. c #0C97D9",
"x. c #0C97DB",
"c. c #268FCC",
"v. c #388EC6",
"b. c #3C93CD",
"n. c #3F9BD8",
"m. c #4191C8",
"M. c #4595CC",
"N. c #5B92C0",
"B. c #5C97C6",
"V. c #5997C8",
"C. c #5999CB",
"Z. c #5F99C9",
"A. c #419DDA",
"S. c #599CD0",
"D. c #599ED3",
"F. c #6798C2",
"G. c #6B9CC7",
"H. c #619BCB",
"J. c #59A1D8",
"K. c #6BA1D0",
"L. c #6BA5D6",
"P. c #6BA6D7",
"I. c #72A7D5",
"U. c #868C94",
/* pixels */
"D B B M M l z D S B k = M G Z B j 2 k , < < B V ; D P ] ] H 2 b ",
"V B B b , & l B c z G H q t 5 m $ p c ] L z z m ; V Z Z Z B z l ",
"B B c 5 B L b 5 j j m = 6.a.:.q 6.a.Y K P m l l < m B Z N B b 2 ",
"c c c D L P P k P c k - t :.t.f.r.=.x Z Z ; < P m x b M B B M , ",
"5 < m N 5 ; X = x , , j z N $ ! # V V Z z < I D Z % < 5 5 5 , X ",
"Z V k & & j B V z j P ] Z * s 3.  b m b 5 = z m 3 k P M $ V V Z ",
"] D M , D ] ] ] Z x K G K % 8.x.Q # k < Z P B 5 & G H 5 z ] ] ] ",
"G M < m ] P H Z m , j m x ( x.x.a.0 5 b P P ] P b 5 M & L L H H ",
"< , X m H D D V = b x 5 9 a.x.x.k.*.- m H V D L D % z $ l b B B ",
"b B m < m V B z z P ] x 9.x.x.x.k.f.R z D Z Z D 3 , 2 m N k , $ ",
"B m M k < < b ; z ] P d h.h.S.h.f.f.4.> l n B m < M P ] I D V < ",
"< $ < 5 D b < ; B ] z 4.H.f.f.Z.a.p.r.W b 2 z ; z L ] H P ] ] Z ",
"k k G ] ] ] H j z m a d.d.V.V.d.F.i.q.1.A I z & z [ H Z V V D Z ",
"; z P H H L ] z o & &.h.S.h.K.K.b.v.N.q.~ F b # b H B 5 5 l l l ",
"m < Z Z Z D D a 1.6 9.l.n.L.J.I.S.f.m.f._ ^ 8.i & z l l O 5 B D ",
"B ; N B B B b y p.&.9.J.J.J.A.J.h.H.C.c._ 4.4.: V P ] G ; D H Z ",
"B z & = c x x 5 f e 8.x.n.l.G.>.D.M.f.f._ 8 : = M b B B , V B B ",
"c 5 5 k k < o ; Z H ) x.P.J.C.7.n.C.B.q.i B [ H 5 l 3 3 & z B B ",
"5 b H ] ] H B X l H Y x.J.A.A.L.K.g.m.9.8 ] P ] ] P , M m < + = ",
", H ] P H ] K j z G g f.x.x.d.u.j.f.d.:.< H D G H G $ H P 2 z L ",
"5 M M z B z z o 3 b 5 *.t.j.o.| <.d.<.p < H Z Z Z z + ] D 5 P Z ",
"3 l + + = & = z l & = 7 U.7. .X.R :.} . < D B Z V c ; I Z 2 m m ",
"& 5 ' [ U Z 3 H P D m M # ( ..@.r u = % m M Z B M l z H M 5 < < ",
"j m L D L I M + 2 5 , = % , +.#.. % j x & c m c b 2 B Z b 5 U U ",
"= z H V Z D m 2 M P L Z 5 $ T O.# z I ] b & X m b , B V 5 5 S Z ",
"5 z m B V V 2 b H ] ] ] ] j h e.4 - z m < < m Z m 2 B z < m 5 = ",
"D z j j b 5 & D P H G H D k = y.z z m < X < 5 5 $ = b = L ] G k ",
"Z D Z b = j z = , c b 5 < = = w.< B ] S < c P U N , < k M M c < ",
"B I ] ] U x j Z ] B $ c P P , %.5 L Z Z 5 j G D z < M c z 5 < z ",
"B D D H L m j ] L D j G Z H m $.. j z < z $ , , = 5 ] ] ] Z z j ",
"V B m Z Z z j L Z B m , < = 5 - & x k H H < G ] S c H D D Z < b ",
"H Z B B B z j H Z m m < H L N = 5 P [ L N < G H V $ < = < < = V "
};
