/* XPM */
static char *_0ad1097437b450fa16fd55c3747ee35H3zZFFo4QD0lFQeW[] = {
/* columns rows colors chars-per-pixel */
"32 32 42 1 ",
"  c #04193F",
". c #4D9E46",
"X c #4EA247",
"o c #4EA547",
"O c #4FA348",
"+ c #4EA648",
"@ c #50A547",
"# c #54A646",
"$ c #58A945",
"% c #58A846",
"& c #5EAB47",
"* c #50A449",
"= c #50A648",
"- c #54A748",
"; c #57AA48",
": c #5AAB49",
"> c #5CAB48",
", c #5EAD49",
"< c #63AE46",
"1 c #67AF46",
"2 c #62AD48",
"3 c #66AF48",
"4 c #68B045",
"5 c #6FB345",
"6 c #67B14A",
"7 c #6DB348",
"8 c #77B743",
"9 c #70B445",
"0 c #79B642",
"q c #77B944",
"w c #75B847",
"e c #7AB945",
"r c #78B947",
"t c #7CBB44",
"y c #70B448",
"u c #82BD42",
"i c #84BF45",
"p c #8FC641",
"a c #780BF7",
"s c #D840FB",
"d c #F489F6",
"f c #FCFEFE",
/* pixels */
"oo+O+++o+XooooooXooo+oX*o%#=+++o",
"+=+++>,@=+X=++++:1++++*X@14===+=",
"=+==:q0%=**==++=:1+++=+=@=o++12+",
"0+X=;61%=+===+===@======@=*@+,,=",
"&@=o+====+=i=  ====.  oo====+=+=",
"=+========e> aa =:* dd 2====-:==",
"+&1%o@=+===@ aaa t dddd ==+=&9==",
"=1t&oo1%=+= aaaa  ddddd =O==+=+=",
"====+=3%@== aaassssddd ==**=====",
"=+====+=== aasssddddds ==+====+=",
"=99=.===@o asssddddddds 2p9===-i",
",ew<==*+- aaffffffddddd =++=+=85",
"========: affffffffdddds ===*++8",
"*O==+=== a  fff   ffdddd @==O++=",
"+O+====.  f  f ff  fdddd +=*==+*",
"===*@==*  f  f ff  fdddd ======u",
"=+=+<0==     f     fdddd O==i===",
"1===+=*= a  fff   fdddds O+===*=",
"8+=+===== fffffffffdddd ==+=+=+=",
"=+*====+0 affffffsdddds =======*",
"=@=*+*==&= aaasssddddd +i=+=2r+=",
"=%=o===+==@ afffdddddd i====i97=",
">e*=+:%=== aaffffdadddd =**=++++",
"=+==:08:=+ afffffdadddd ==+=+OO=",
"=+=+#t8%= aaffffffsadddd +9>==+=",
".+=+=%:@= aaffffffsadddd =>-+=+=",
"+==*+==== aaffffffdsaddd +**==t2",
"==>#===+==  affffddssaa *O+=+===",
"=+y>===7*+* aasssdddss ==@*===*X",
"=+*.===9*=O aaaa  dddd ==3<===O=",
"===*===*=*== aaa  dddd ==>2+====",
"=====+=+==== aaa + ddd ====O+=+*"
};
