/* XPM */
static char *_7b10adab28e464e825beb4a6a7f1960JP7oJjjGjCPA5Z3f[] = {
/* columns rows colors chars-per-pixel */
"32 32 165 2 ",
"   c #070912",
".  c #0C0E1A",
"X  c #0F1222",
"o  c #111320",
"O  c #131523",
"+  c #131627",
"@  c #141727",
"#  c #151827",
"$  c #171A2A",
"%  c #16192C",
"&  c #171A2E",
"*  c #181B2C",
"=  c #181B2D",
"-  c #1B1E32",
";  c #1B1F34",
":  c #1C1F34",
">  c #1C2034",
",  c #17273E",
"<  c #1E223A",
"1  c #1F233A",
"2  c #1F233B",
"3  c #252731",
"4  c #20233B",
"5  c #20243B",
"6  c #22263F",
"7  c #0F2C43",
"8  c #132940",
"9  c #142D46",
"0  c #1E2B45",
"q  c #152F48",
"w  c #1C2E4A",
"e  c #1C2F4A",
"r  c #003049",
"t  c #0B334C",
"y  c #0F334C",
"u  c #16334F",
"i  c #18304B",
"p  c #023650",
"a  c #023955",
"s  c #023A56",
"d  c #0A3956",
"f  c #023E5B",
"g  c #043D5A",
"h  c #133854",
"j  c #1A3958",
"k  c #1D3D5A",
"l  c #232741",
"z  c #232742",
"x  c #232842",
"c  c #242843",
"v  c #242944",
"b  c #262B46",
"n  c #272B48",
"m  c #272C4A",
"M  c #292E4B",
"N  c #2A2F4F",
"B  c #2B304F",
"V  c #3C3D42",
"C  c #2B3050",
"Z  c #2D3253",
"A  c #2E3355",
"S  c #2D3457",
"D  c #2F3557",
"F  c #2F3558",
"G  c #303657",
"H  c #31375A",
"J  c #32375C",
"K  c #32385B",
"L  c #33395F",
"P  c #343B60",
"I  c #343A61",
"U  c #363D65",
"Y  c #363E66",
"T  c #383F67",
"R  c #383F68",
"E  c #393F69",
"W  c #02405E",
"Q  c #127258",
"!  c #034261",
"~  c #064565",
"^  c #03486A",
"/  c #184668",
"(  c #044E71",
")  c #044F73",
"_  c #04547B",
"`  c #04557C",
"'  c #224266",
"]  c #384068",
"[  c #3A426C",
"{  c #3C436E",
"}  c #727272",
"|  c #CB0C0C",
" . c #8F5A05",
".. c #8D7905",
"X. c #D76C0D",
"o. c #865053",
"O. c #4EB152",
"+. c #848217",
"@. c #D4930D",
"#. c #D0C220",
"$. c #652298",
"%. c #6F22A6",
"&. c #055A84",
"*. c #055E89",
"=. c #05608C",
"-. c #056493",
";. c #066694",
":. c #066898",
">. c #036D9F",
",. c #096D9F",
"<. c #066EA0",
"1. c #0770A3",
"2. c #0772A5",
"3. c #0773A7",
"4. c #0875A9",
"5. c #0876AB",
"6. c #0778AE",
"7. c #0878AD",
"8. c #0879AF",
"9. c #087AB0",
"0. c #0C7AB1",
"q. c #087EB6",
"w. c #6547AB",
"e. c #1C91AF",
"r. c #0981BB",
"t. c #0A85BF",
"y. c #1B89BD",
"u. c #4D81AB",
"i. c #6192BC",
"p. c #0985C0",
"a. c #0A87C3",
"s. c #088AC7",
"d. c #0A8BC8",
"f. c #0A8BC9",
"g. c #0B8ECE",
"h. c #0B8FCF",
"j. c #0B90D0",
"k. c #0B92D3",
"l. c #0B93D4",
"z. c #0B93D5",
"x. c #0A94D6",
"c. c #0C97D9",
"v. c #0C97DB",
"b. c #268FCC",
"n. c #388EC6",
"m. c #3C93CD",
"M. c #3F9BD8",
"N. c #4191C8",
"B. c #4595CC",
"V. c #5B92C0",
"C. c #5996C7",
"Z. c #5997C8",
"A. c #5999CB",
"S. c #5F99C9",
"D. c #409DDA",
"F. c #599DD2",
"G. c #599ED3",
"H. c #6798C2",
"J. c #6B9CC7",
"K. c #59A1D8",
"L. c #6BA1CF",
"P. c #6BA1D0",
"I. c #6BA6D7",
"U. c #72A7D5",
"Y. c #868C94",
/* pixels */
"H Z Z B B c b H D Z z - N H D Z z 1 z > 1 1 Z A : H U [ [ L 4 M ",
"A Z Z M > * c Z M b H L 6 N M M 1 n H [ I b b N : A D D D Z b c ",
"Z Z m 6 Z I M 6 c z N b $ c 4 6 N [ [ I U N c c 1 N Z D C Z M 4 ",
"m m m H I U U x U b z : b I [ b B U L D D : 1 U N n M B Z Z B > ",
"6 1 N C 6 : O - b : > c b H H : c Z A D b 4 T H F $ 1 6 6 6 - O ",
"D A x * * z Z A b z U [ A * * : $ M N M 6 - b N 1 x U B $ A A D ",
"[ H B > H [ [ [ G b I H I 1 N E H $ z 5 D U Z 6 * I I 6 b [ [ [ ",
"K B 1 N [ U L D B : c N N * ' G H 1 6 M U U [ U M 6 B $ I I L L ",
"1 > O N L H D A ; M n 6 : : 0.3.w b z N L D K I H $ b $ x N Z Z ",
"M Z N 1 N A Z b b U [ J b z / <.7 z ; b F D F F 1 - 1 N N z > + ",
"Z N B x 1 1 N ; b [ U U q ! _ _ _ h 9 , 6 B D B 1 C U [ T H D 1 ",
"1 @ 1 6 L m 1 > C [ 0 ~ <.q.s.b.g.q.9.;.s O b > b I [ L L [ [ D ",
"x > W D [ [ I < 1 ! 3.r.r.V.m.Z.f.C.N.f.,.} % % b { L A G A H G ",
"> s f.*.L I U q *.g.s.t.i.n.k.H.B.Z.g.g.f.-.p + M L Z 6 6 x c c ",
"N % 4.r.; 1 ^ s.x.l.g.s.H.m.G.x.G.M.P.x.>.! r   . z z z O z A H ",
"A ; e j.( <.v.v.v.v.x.S.d.P.U.K.;.6.I.u.| X.@.#.O.e.y.w.%.$.c A ",
"A > ;.p.X f 8.v.v.v.G.g.A.L.K.M.J.A.M.j.o. ...+.Q k z 6 O b A Z ",
"M t f.:.1 1 . ( p.v.x.d.C.l.I.K.v.K.M.v.x.8.( B 6 b 1 1 * m Z Z ",
"6 9 4.j [ H A o 9 9.x.S.d.G.M.K.M.I.K.v.p.Y.$ I [ I : B N 1 + - ",
"> I C U I [ I z b b g 3.d.j.v.K.v.v.v.d.=.V F K I H $ L U 1 b I ",
"6 B M b Z n b O 6 M B 1 d &.9.9.9.) f y - D D D F b $ [ H 6 U D ",
"1 c # # - * - b z $ > > % O 3 &.8 C Z - 6 K Z D A n - T D 4 N N ",
"$ 6 [ [ E D 5 L E K C A I x <.t.u B M $ M Z Z Z N b b L N 6 1 1 ",
"c N I H I T B # 1 < > - % > d u x > x b $ m B M M 1 Z G M 6 E E ",
": b H A H H N 4 B U L D 6 $ N [ v b E [ N $ O N M - Z Z 6 6 D D ",
"6 b N Z A A 4 N I [ [ [ ] z 1 I z ; n M 1 1 N D N 4 Z b 1 N 6 - ",
"H b 6 z M z $ H U L K L K z z M b b N 1 O 1 6 6 $ - N - I [ K x ",
"H H D M : z c : > m M 6 1 - b b 1 Z [ D 1 m U E N : 1 z B B m 1 ",
"A T [ [ T b c A [ Z % m U U b x z I D D 6 z H K b 1 B m b 6 1 b ",
"Z H H L I N c [ I H 6 K F L H B O z b 1 b $ - > - 6 [ [ [ D b z ",
"A Z N D A b z I D A M > 1 > 6 m % M x L L 1 H [ D m L H H D 1 M ",
"L D Z Z A b c H D N N 1 L I B - 6 U [ I C 1 H L A $ 1 - 1 1 - A "
};
