/* XPM */
static char *f14709cd2d6c4720a08c6821cc0bfbdcGK73aj6JTBM2Lb6D[] = {
/* columns rows colors chars-per-pixel */
"32 32 149 2 ",
"   c black",
".  c #230514",
"X  c #143311",
"o  c #193C15",
"O  c #570014",
"+  c #600017",
"@  c #67001A",
"#  c #76001F",
"$  c #591739",
"%  c #7D0021",
"&  c #1E461B",
"*  c #1F491C",
"=  c #224D1E",
"-  c #23511F",
";  c #34722F",
":  c #377631",
">  c #3D7734",
",  c #3A7C34",
"<  c #554638",
"1  c #557A3B",
"2  c #7C1C51",
"3  c #662F43",
"4  c #73214C",
"5  c #7D2553",
"6  c #645F5C",
"7  c #74654C",
"8  c #7B6D51",
"9  c #810022",
"0  c #B30033",
"q  c #BB063B",
"w  c #AD2634",
"e  c #AF2C35",
"r  c #AF3836",
"t  c #B23337",
"y  c #C4033C",
"u  c #C9003B",
"i  c #841E49",
"p  c #9D1744",
"a  c #9E1951",
"s  c #AD1E51",
"d  c #BB1C51",
"f  c #8D2453",
"g  c #982453",
"h  c #A02152",
"j  c #CB064D",
"k  c #D1054D",
"l  c #CF1750",
"z  c #C71A51",
"x  c #CA1950",
"c  c #D21750",
"v  c #E60044",
"b  c #EB0046",
"n  c #EA004B",
"m  c #E70F4F",
"M  c #ED0B4E",
"N  c #F50046",
"B  c #FF0046",
"V  c #F4034B",
"C  c #FF004C",
"Z  c #F3094E",
"A  c #E9164D",
"S  c #C82F45",
"D  c #FF3C57",
"F  c #945769",
"G  c #945F71",
"H  c #B0696F",
"J  c #A27A66",
"K  c #DA485D",
"L  c #FF425B",
"P  c #F0485B",
"I  c #CD5467",
"U  c #FB5B6A",
"Y  c #FF586E",
"T  c #FF6067",
"R  c #FF6E6F",
"E  c #FF6D77",
"W  c #3C8036",
"Q  c #3F8539",
"!  c #5E892F",
"~  c #40883A",
"^  c #4E8D3D",
"/  c #45923F",
"(  c #67A33D",
")  c #469540",
"_  c #499742",
"`  c #4B9C44",
"'  c #598450",
"]  c #4EA447",
"[  c #4FA648",
"{  c #51A647",
"}  c #57A947",
"|  c #5BAA46",
" . c #50A648",
".. c #55A948",
"X. c #5DAC49",
"o. c #64AF46",
"O. c #63AE48",
"+. c #6CB245",
"@. c #66B149",
"#. c #6DB448",
"$. c #73B644",
"%. c #79B742",
"&. c #76B844",
"*. c #79B944",
"=. c #70B448",
"-. c #83BE43",
";. c #988B66",
":. c #B9937A",
">. c #FF827A",
",. c #84C145",
"<. c #E47C87",
"1. c #FF7682",
"2. c #B5ADA4",
"3. c #C69D82",
"4. c #FD9183",
"5. c #FF9B8A",
"6. c #D6AD8E",
"7. c #DDA398",
"8. c #ECB396",
"9. c #EDB99D",
"0. c #FFB79C",
"q. c #FFBA9E",
"w. c #C6B8AF",
"e. c #D0B8B7",
"r. c #ECA9A0",
"t. c #FFACAD",
"y. c #EDBEA6",
"u. c #FFB3B3",
"i. c #EBC2A8",
"p. c #F1C1A1",
"a. c #FAC4A7",
"s. c #FFC7AC",
"d. c #FFCCAA",
"f. c #FFD2B5",
"g. c #FFD5BA",
"h. c #FDD6C5",
"j. c #F6D6C8",
"k. c #FFDAC9",
"l. c #E7DBD3",
"z. c #EDDCD5",
"x. c #FFDCD5",
"c. c #FFE1CE",
"v. c #FFE3D1",
"b. c #F3E4DD",
"n. c #FEE5DE",
"m. c #FFEADE",
"M. c #FFEDE3",
"N. c #FFF0E7",
"B. c #FFF1E8",
/* pixels */
"] ] [ [ ] ....] ] ] ] ] ] ] [ ] ] ] ] [ ] ] ] ] [ ] [ [ [ ] [ ] ",
" .[  .[ [ +.+.{ [ [ [ [ [ [ O...[ [ [ [  .[ ]  .[ X.X.[ [ [ [ [ ",
"[ O.O.[ { ] ] [ [ [  . .[  .+.| [ [ [ [  .[ ] [ | *.&.X.] ] [ [ ",
"[ X.X. . .] [ {  .[  . .[  .[ [ [ [ [ [  . .[  .} o.@.} ] ] [ *.",
"[ [  .{  .[  .) : : : : : : : : : : : : ! : : : ] [  .] ] { [ | ",
" .[ | .. .[ [ ,                                 /  . .[  . . . .",
" .[ $.| [ ` o e b V P p.p.9.p.y.p.p.p.p.p.b.j.p.8 = { [ | +.|  .",
" .[  .[ _ ^ # u C Z P q.s.g.d.d.d.d.d.f.g.M.h.q.J 7 _ ` | *.o. .",
" .[  . .& @ C C C g g C t.B.g.d.d.d.d.m.M.s.5.B 0.a.  : [ [ [  .",
"[ [ ) : t u C m x f f x <.t.h.c.c.v.k.M.M.4.R C >.4.:.;.: ` [  .",
",. .:   b C B j 2 i 2 2 j B x.B.B.N.B.B.n.B C C B D d.3.  ( #. .",
"=.&.,   8.s.n.j.a.y.i.M.n.n.N.B.B.B.B.B.N.n.h.q.v.n.M.w.  ( *.X.",
"%.] Q = 6.y.B.k.q.y.y.z.z.z.l.z.N.N.m.x.x.x.j.9.j.x.l.2.= _  . .",
" .[ [ ] & 6 B.u.B a 2 2 2 2 2 F B.c.d.T B C k 2 n N   ;  . .] ] ",
"[ ]  .[ Q ' 2.7.5.K x 5 5 5 5 G B.m.c.E C z l c q w , /  . .]  .",
"-.{  .{ [ `   :.d.U Z 5 5 f 5 G B.B.B.1.Z 5 z C 9 X  . . . .[ { ",
"[  . .-. . ._ ^ < A C Z x 5 m U B.v.f.H h Z y O ^ ` %.O.]  .[ { ",
" . . . . . . .Q - c b C l 5 m Y B.j.9.H s v t - _ .. .[ { [ [ @.",
" .[  .[  .]  . .} * + C l 5 M U N.e.2 M V   ; {  . . . .[ { [ $.",
" .[  . . . .[ [ { Q 1 0 p 5 d I k.r.c q w W / %.]  . . .[ { [ { ",
" .[ &.O. .[  .,.{ { `   $ 5 5 F d.5.C % o [ [ X.[  . .[ [  .[  .",
" .#.#.-.{ [  . .,.{ [ _ > . 4 g L S O ^ ` [ [  .[  .{ [ [  .|  .",
" .[ [ [  .[  . .{ [ [ [ Q = 3 i v r = _ [ { {  .[ | X. . . .&.X.",
" .] ] [  .[  . .[ [  .{ | o.=     : ] [ ..o.[  .| &.*... . .[ [ ",
" .[  .[ X.=.[  .[ [  .[ | o.~ W W / [ [ | o.[  .} &.&...]  .[ [ ",
" .[  .[ ..|  . .{  . .{ [ [ [  . .[ [ [ ]  .[  .[ | | [ [  . .` ",
"O.*. . . .]  . .| *. .[ [  .[  .`  . . . . .[  .[  . .[  . . .[ ",
"] [  . . .[ ] [  .[  . .[ [ [  .{ #.+.[ ]  .[  .[ [  .[ } X.[  .",
" .]  . . . . . . .[  . ...@. . . .]  . . .]  . .#. . .[ | =. . .",
"] ]  . . .o.o. .[ [ ]  .| &.@.[  .[ [ [ ] [ [  .+. . .[ `  .[ [ ",
" . . . . .| X. . .[ ]  .{ X.X.[  . .{  . . . . . . . . .[  .[  .",
" .[  . . . . . . . . . .{ [ [ { [  .] [  . . . . . .[  . . . . ."
};
