/* XPM */
static char *_8f0b381fdb349caf8fe492c8b50c96bjQyauz63tLJJ6kAv[] = {
/* columns rows colors chars-per-pixel */
"32 32 153 2 ",
"   c black",
".  c #230514",
"X  c #163612",
"o  c #570014",
"O  c #600017",
"+  c #67001A",
"@  c #76001F",
"#  c #591739",
"$  c #7D0021",
"%  c #1E461A",
"&  c #1F491C",
"*  c #224D1D",
"=  c #27511E",
"-  c #245320",
";  c #34712E",
":  c #377631",
">  c #3A7D35",
",  c #554638",
"<  c #40772F",
"1  c #487E2F",
"2  c #437934",
"3  c #487E30",
"4  c #557A3B",
"5  c #7C1C51",
"6  c #662F43",
"7  c #73214C",
"8  c #7D2553",
"9  c #645F5C",
"0  c #73644C",
"q  c #7B6D51",
"w  c #810022",
"e  c #B30033",
"r  c #BB063B",
"t  c #AD2634",
"y  c #AF2C35",
"u  c #B23337",
"i  c #C4033C",
"p  c #C9003B",
"a  c #D31F3F",
"s  c #841E49",
"d  c #9D1744",
"f  c #9E1951",
"g  c #AD1E51",
"h  c #BB1C51",
"j  c #8D2453",
"k  c #982453",
"l  c #A02152",
"z  c #CB064D",
"x  c #D1054D",
"c  c #CF1750",
"v  c #C71A51",
"b  c #CA1950",
"n  c #D21750",
"m  c #E60044",
"M  c #EB0046",
"N  c #EA004B",
"B  c #E70F4F",
"V  c #ED0B4E",
"C  c #F50046",
"Z  c #FF0046",
"A  c #F4034B",
"S  c #FF004C",
"D  c #F3094E",
"F  c #E9164D",
"G  c #C82F45",
"H  c #FF3C57",
"J  c #945769",
"K  c #945F71",
"L  c #B65D67",
"P  c #B0696F",
"I  c #A27A66",
"U  c #DA485D",
"Y  c #FF425B",
"T  c #F0485B",
"R  c #CD5467",
"E  c #FB5B6A",
"W  c #FF586E",
"Q  c #FF6067",
"!  c #FF6E6F",
"~  c #FF6D77",
"^  c #3F8639",
"/  c #54842F",
"(  c #40883A",
")  c #4E8E3E",
"_  c #45923F",
"`  c #4D973E",
"'  c #689A35",
"]  c #649D3C",
"[  c #499742",
"{  c #4B9C44",
"}  c #539F43",
"|  c #598450",
" . c #4EA447",
".. c #4FA648",
"X. c #51A647",
"o. c #57A946",
"O. c #5BAA46",
"+. c #50A648",
"@. c #55A948",
"#. c #5CAC49",
"$. c #64AE46",
"%. c #63AE48",
"&. c #66B047",
"*. c #6CB245",
"=. c #6DB448",
"-. c #72B644",
";. c #76B845",
":. c #7ABA45",
">. c #83BE44",
",. c #988B66",
"<. c #B9937A",
"1. c #C0997F",
"2. c #FF827A",
"3. c #84C145",
"4. c #E47C87",
"5. c #FF7682",
"6. c #B5ADA4",
"7. c #C69D82",
"8. c #FD9183",
"9. c #FF9B8A",
"0. c #D6AD8E",
"q. c #DDA398",
"w. c #ECB396",
"e. c #EDB99D",
"r. c #FFBA9E",
"t. c #C6B8AF",
"y. c #D0B8B7",
"u. c #ECA9A0",
"i. c #FFACAD",
"p. c #EDBEA6",
"a. c #FFB3B3",
"s. c #EBC2A8",
"d. c #F1C1A1",
"f. c #FAC4A7",
"g. c #FFC7AC",
"h. c #FFCCAA",
"j. c #F7CDBF",
"k. c #FFD2B5",
"l. c #FFD5BA",
"z. c #FDD6C5",
"x. c #F6D6C8",
"c. c #FFDAC9",
"v. c #E7DBD3",
"b. c #EDDCD5",
"n. c #FFDCD5",
"m. c #FFE1CE",
"M. c #FFE3D1",
"N. c #F3E4DD",
"B. c #FEE5DE",
"V. c #FFEADE",
"C. c #FFEDE3",
"Z. c #FFF0E7",
"A. c #FFF1E8",
/* pixels */
" . ..... .@.@. . . . ... . ..... . . ....... ... . ........... .",
"+...+.....*.*.X.............%.o.........+... .....#.%.+.........",
"..%.$..... . .......+.......*.o.................O.;.;.o. . .....",
"..#.#.+.....X...+...+.+...+.............+.+...+.o.&.&.o. . ...;.",
"....+. .+...+.+.....X.+.{  .+.+.....+.+.3.+...+.@.+..... . ...O.",
"+...#.@.+...+.+.#.:.X...+...#.+.........#.:...+. .+.....@. .+.+.",
"+...-.O.....+.+.X...+.....#.:.-.........X.+.X.+..... ...O.*.O.+.",
"+...+...+....._ : : : : : 3 1 / : : : : : : : : } &.@. .O.:.$.+.",
"@.......+.+.+.>                                 ` &.+.+.+.+.+.+.",
" . .+...+.{ X y A M T d.p.d.d.d.d.d.d.d.s.N.x.d.q * +.+.+.+...+.",
"3.+.+.+.{ ] @ p S D T r.g.l.h.h.h.h.h.k.l.V.z.r.I 0 [ [ +.-.-.+.",
"-.;.+...% + S S S k k S i.A.l.h.h.h.h.V.C.h.9.S r.d.  ; %.;.:.#.",
";. .[ : y p S B b j j v 4.i.c.c.m.m.m.C.C.8.! S 2.8.1.,.: { ....",
"+...:   M S S z 5 5 5 5 z C n.Z.Z.Z.A.Z.B.Z S S S H h.7.  [  . .",
" . .:   w.g.B.z.f.f.f.C.N.B.C.A.A.A.A.Z.C.B.z.f.n.B.C.t.  _  . .",
">.+.( * 0.s.A.c.r.e.p.v.b.b.b.b.A.C.V.n.n.n.j.e.z.n.v.6.* [ ..+.",
"..+.+.>.& 9 A.a.S f 5 5 5 5 5 K A.m.h.Q S S x 8 N C   < +.+.....",
"+.+.+.+.^ | 6.q.9.U b 8 5 8 8 K A.V.m.~ A b c n r t > _ +.+.+.$.",
"+...+.....{   <.h.E D 8 8 8 8 K A.Z.A.5.A 8 v S w X  .....+.+.-.",
"+.......+. .{ 4 , F S D b 8 B E A.M.k.P l D i o ) { ....+.+.+.X.",
"+...;.%.......' = a M S c 8 V W A.x.e.L g m u = [ +.+.....@. ...",
"+.=.=.3.@.....+.3.* O S c 8 V E A.y.8 V A   : ....+.+.....+.O.+.",
"........+...+. . .^ 4 e d 8 h R m.u.n r t > _ @...O.#... .+.;.#.",
" . .....+...+. .@.@.{   # 8 8 J h.9.S $ X $. .+.o.;.:.o.+.......",
"+...+...#.*.+.+. ...+.{ 2 . 7 k Y G o ) X.$...+.o.:.;.@.+. .....",
"....+...@.O.+.+. .@...+.( - 6 s m u - [ +.+...+.+.o.o...@. .+.{ ",
"%.:.+.+.+. .+.+.O.:.+.....@.&     : @. .+.+.+.+.+.+.@...+.+.+...",
"....+.+.+... .+.+...+.+...+.^ ^ ^ ] *.+.X.+. .+.+.+. . .o.#...+.",
"+. .+.+.+.+.+.+.+...+.+.O.%.+.+. . .....+. .+.+.=.+.+...O.=.+.+.",
"+. .+.+.+.$.$.+..... ...o.;.&... . ..... .....+.*...+.+.{ +.+.+.",
"+.+.+.+.+.#.#.+.+.......+.#.#.+.+.+.....+.+.+.+.+.+.+.+. .+.+.+.",
"+. .+.+.+.+.+.+.+...+...@.+...+..... ...+.+.+.+.+.+...+.+.+.+.+."
};
