/* XPM */
static char *f23f1fbc4f2d4228ee43c54552d0956d9tDwOujNrpglQ3EP[] = {
/* columns rows colors chars-per-pixel */
"32 32 45 1 ",
"  c black",
". c #953525",
"X c #D46553",
"o c #4D9E46",
"O c #4EA247",
"+ c #4EA547",
"@ c #4FA348",
"# c #4EA648",
"$ c #50A547",
"% c #54A646",
"& c #57A847",
"* c #58A945",
"= c #58A846",
"- c #5EAB47",
"; c #50A448",
": c #50A449",
"> c #50A648",
", c #54A748",
"< c #57AA48",
"1 c #5AAB49",
"2 c #5CAB48",
"3 c #5EAD49",
"4 c #63AE46",
"5 c #67AF46",
"6 c #62AD48",
"7 c #66AF48",
"8 c #68B045",
"9 c #6FB345",
"0 c #67B14A",
"q c #6DB348",
"w c #77B743",
"e c #70B445",
"r c #79B642",
"t c #77B944",
"y c #75B847",
"u c #7ABA43",
"i c #7AB945",
"p c #78B947",
"a c #7CBB44",
"s c #70B448",
"d c #82BD42",
"f c #84BF45",
"g c #8FC641",
"h c #EDBEB7",
"j c #F9E8E5",
/* pixels */
"++###&*+@@+#+++O++++@O+#++##++++",
">#>>>88>@@####41####>@+#$33#####",
"#64##O>>>#>##>51>##>>:>>*ri1>>#>",
">33>>@>>>>>>>>$>>>#>>>#>*70&>O#r",
">#>>>>>>##> o>>>>#>>f>#>>>>##:;-",
">>1,>>>>6i X >1>>>>#2i>>>>>>>>#$",
">>e->#>>> XXX   #>#>$>>>#>$#*5-#",
">#>#>@@>> Xjhjhj  >#$>#>*4+O6a4>",
">>>>>::>> hhjhjjjj >o>>>*7>#>>>:",
">#>>>>#>> XXhjhjjh >#>>>>>>>>>#>",
"f,>>>eg6> XXhhjjhjj  >+$>>>o>ee>",
"9w>#>##>># XXhhjjjjjh -,#>>>4yi3",
"w##>>>>>>#> jjhjjjjhhX 1>>>>>>>>",
">##@>>>:#># hhjhhhXjhhX >>>#>>::",
">#>>:>#:a > XhjhhhhXjhh o>>>>>O#",
"d>>>>>>> j  XhjhhhhhXjh :>>$:>>>",
">>>f>>> jjX  hjhhhhhXjh. >r4#>#>",
">:>>>#@ hjXX jXXhhhhjjXX >>#>>>5",
">#>#>#> hhjX ..XXXhjhjXX >>>#>#w",
":>>>>>>> hh # ..jjjhhjXX >>>>>#>",
">#p6>#>f#  >>>  .hhhhjX. >:#>>>>",
">qef>>>>f>>o>>>> .hhhjXX >>>#>=>",
"####>>>>>>>>>>>>> XhXjX. *1#>:i2",
">@@#>#>>>>>>%4#>>>   j.Xh r1>>#>",
">#>>2e#>#>>#*7#>>>#>,  Xh i<#>#>",
">#>#,2>>$+>>#>>>>#>#>>#  1*>#>#o",
"6a>>>@>>-u>#>>>>o+>$>>#>>>>#:>>#",
">>>#>#@:>>:>#>#>+ee>>>>>#>>>%2>>",
"#@>>>:>>>>>$17>>>>>##:#:q>>>2s#>",
"@:>>>47>>>::#r7>>##>O:>:e>>>o>#>",
">>>>@62>>>:>>22>>>:$>>:>:>>>:>>>",
":###@>>>>>>>>>#>>>+>>>>>#>#$:>>>"
};
