/* XPM */
static char *aed1b0d159b64dad9e259a349867f2e780CKszEdpS8swMW3[] = {
/* columns rows colors chars-per-pixel */
"32 32 131 2 ",
"   c #000000",
".  c #02040F",
"X  c #030613",
"o  c #060B1B",
"O  c #0A1128",
"+  c #131524",
"@  c #171A2B",
"#  c #191C2E",
"$  c #1B1E32",
"%  c #1D2136",
"&  c #1F2239",
"*  c #21253D",
"=  c #500011",
"-  c #590015",
";  c #6F001D",
":  c #73001E",
">  c #5B0C28",
",  c #6F0523",
"<  c #601A3E",
"1  c #733834",
"2  c #232741",
"3  c #252944",
"4  c #272C49",
"5  c #292E4C",
"6  c #2B304F",
"7  c #2D3253",
"8  c #2F3558",
"9  c #31365A",
"0  c #33395E",
"q  c #363C63",
"w  c #383F67",
"e  c #383F68",
"r  c #671C43",
"t  c #711B42",
"y  c #74214C",
"u  c #7E2453",
"i  c #7F2A55",
"p  c #3A416C",
"a  c #735A4A",
"s  c #736C68",
"d  c #97062F",
"f  c #9A002A",
"g  c #9B0631",
"h  c #A7002F",
"j  c #B40034",
"k  c #B5063A",
"l  c #BA0439",
"z  c #C2023A",
"x  c #CC003C",
"c  c #D1003E",
"v  c #AD1F51",
"b  c #B41D51",
"n  c #BB1D51",
"m  c #8E2252",
"M  c #9B2252",
"N  c #932853",
"B  c #A02152",
"V  c #D90040",
"C  c #DB134F",
"Z  c #C31B51",
"A  c #C91950",
"S  c #D31650",
"D  c #E50044",
"F  c #ED0047",
"G  c #EB0D4E",
"H  c #F4024A",
"J  c #FE004D",
"K  c #F0094E",
"L  c #E0124F",
"P  c #FF134F",
"I  c #C52253",
"U  c #FF2652",
"Y  c #FF3757",
"T  c #FF3E59",
"R  c #997964",
"E  c #B67F79",
"W  c #FF4763",
"Q  c #FF5663",
"!  c #F45F67",
"~  c #CA6169",
"^  c #E86B6D",
"/  c #FD7476",
"(  c #A7856E",
")  c #B4826D",
"_  c #AB8871",
"`  c #B38F76",
"'  c #D0917C",
"]  c #FF847B",
"[  c #FF887E",
"{  c #AB9D94",
"}  c #AAA19B",
"|  c #D29E8B",
" . c #E8808A",
".. c #ED9281",
"X. c #FF9C8A",
"o. c #FF9096",
"O. c #CBA286",
"+. c #CFA589",
"@. c #F4A08B",
"#. c #FFA396",
"$. c #FEAB95",
"%. c #ECBB9D",
"&. c #FFB99D",
"*. c #C7BBB5",
"=. c #ECAEA6",
"-. c #FFA1A4",
";. c #EEBCA2",
":. c #FFBCA3",
">. c #FFB2A9",
",. c #FFB9B8",
"<. c #FFC0A2",
"1. c #FFCCAA",
"2. c #ECC7B5",
"3. c #FFC7B2",
"4. c #FFCFB0",
"5. c #FFD1B4",
"6. c #FFD5BA",
"7. c #D9CDC5",
"8. c #FFD1C5",
"9. c #FEDBC4",
"0. c #FFDCC9",
"q. c #E5D8D0",
"w. c #EBDAD4",
"e. c #FEDBD4",
"r. c #FFE1CE",
"t. c #FFE5D4",
"y. c #FFE2DA",
"u. c #FFEADD",
"i. c #FFEEE3",
"p. c #FEF0E7",
"a. c #FFF1E8",
/* pixels */
"9 7 7 6 6 2 4 9 7 7 2 $ 7 8 7 7 2 * * & % & 7 7 % 7 p p p 0 * 5 ",
"7 7 7 5 % @ 3 7 6 4 8 q 2 6 5 7 & 4 8 p q 5 3 7 & 7 9 7 7 7 3 2 ",
"7 7 4 2 7 q 5 * 2 2 7 2 # & & 2 4 p p q q 5 2 3 * 7 7 7 7 7 7 & ",
"5 4 4 9 q q q 3 q 3 2 & 3 q p 3 6 p 0 9 7 & & q 4 5 4 6 7 7 5 % ",
"* & 5 6 * & + $ 5 $ & * 3 8 7 & 2 7 7 7 4 * p 0 7 # * * * * & + ",
"9 7 2 # @ * 7 7 5 & q p 7 # $ $ $ 5 5 6 * $ 3 5 * 3 q 7 @ 6 7 7 ",
"p 0 5 & 9 e p e 7 4 q 0 q * 4 e 7 # * & 7 q 7 * @ 0 0 & 2 p p p ",
"8 7 & 7 p q q o . . . . . . X X . . . X X . X . X & 6 @ q q q q ",
"& % + 5 0 9 8 , : : 1 a a a a a a a a a a s s a a @ 3 # 2 5 7 7 ",
"6 6 6 & 7 o   H J J ] 1.1.1.1.1.1.1.1.1.1.t.a.5.%.    5 6 3 % @ ",
"5 7 6 2 % d h J J C ^ #.3.0.1.1.1.1.1.5.0.r.t.$.@.( R p p 9 6 * ",
"& # & O   V J J G u n J ,.p.6.1.1.1.1.r.a.6.1.T Q 1.+.  q p p 7 ",
"3 2   g x H J Z b m N n  .-.0.t.t.t.t.u.a.>.] U Y [ ..O.R   9 8 ",
"% 4   j J J J m u u u u S J e.a.p.p.p.p.a.o.J J J J ] 1._   2 2 ",
"5 &   ) &.8.e.;.%.%.2.w.e.e.i.a.a.a.p.p.p.y.e.:.:.e.y.u.{   7 9 ",
"7 %   ` 1.t.a.4.1.1.9.p.i.a.i.a.a.a.a.p.p.p.p.5.5.a.a.a.}   0 8 ",
"7 4 # O   7.p.W F u u u u u u i a.u.1.X.J J J M M J x   % 7 7 7 ",
"4 * * *   *.q./ ! v M u u u u i a.u.6.#.J K G B b D z . @ 4 7 6 ",
"* 6 q p p o   <.:.J C u u u u i p.p.a.,.J b i J F     5 5 * @ % ",
"% q p q p p . { ' J G Z B u n I p.i.t.=.S A Z z l X # 9 q * * q ",
"* 6 5 4 6 4 4 X ; J J J n u G P p.u.1.| u L J = . 4 $ p 0 * q 8 ",
"* * @ @ $ $ $ 3 > f x J n u G P p.y.E ~ L k f 7 7 4 # w 7 * 6 5 ",
"# * q p e 7 & q p   h J n m G P p.q.u Z J f   7 5 3 5 0 7 * * * ",
"* 5 q 9 q q 5 # % % % - t u m N 5.:.K z - 5 5 5 5 * 5 8 5 * w w ",
"% 5 0 8 8 0 5 * 6 q q   < y u i <.$.F l o # + 6 5 * 7 8 * * 8 7 ",
"* 3 6 7 7 8 * 5 q p q p     y u J D   X * * 6 8 5 % 7 3 * 7 * $ ",
"9 5 * * 6 * @ 8 q 0 0 0 0   r r c z   * + * * * @ # 4 $ q p 0 * ",
"9 9 8 5 * * * * % 4 5 * % %         p 8 * 4 q q 5 % * 2 6 6 5 * ",
"8 q p p q 5 * 9 q 7 $ 4 q q 3 2 3 q 8 8 * * 0 8 3 * 6 5 3 * * 3 ",
"7 0 0 0 0 4 3 p q 0 * 0 9 q 9 6 + * 3 & 3 @ * % % * p p p 8 4 * ",
"7 7 6 8 7 4 3 q 8 7 5 $ & % * 5 $ 3 3 q 0 % 0 p 8 3 9 9 8 6 * 5 ",
"0 9 6 7 7 4 3 7 7 7 5 * 9 q 5 & & q p q 6 * 0 0 7 # $ * * * * 7 "
};
