/* XPM */
static char *downleft_corner1680690666[] = {
/* columns rows colors chars-per-pixel */
"32 32 74 1 ",
"  c #003524",
". c #003B26",
"X c #013B2B",
"o c #1A322B",
"O c #013E32",
"+ c #0A3D34",
"@ c #003D3A",
"# c #143933",
"$ c #183A30",
"% c #004226",
"& c #00432B",
"* c #004C2B",
"= c #00502B",
"- c #004534",
"; c #004B34",
": c #0D4C35",
"> c #00423A",
", c #004F39",
"< c #005435",
"1 c #0D5135",
"2 c #005B34",
"3 c #00533A",
"4 c #015C3B",
"5 c #145635",
"6 c #185438",
"7 c #006135",
"8 c #00613B",
"9 c #006A3F",
"0 c #00773F",
"q c #007B3D",
"w c #024A43",
"e c #005543",
"r c #005A42",
"t c #035E5E",
"y c #006445",
"u c #006B43",
"i c #00634A",
"p c #026D4D",
"a c #126547",
"s c #166649",
"d c #196549",
"f c #007742",
"g c #007B42",
"h c #00744D",
"j c #007B4B",
"k c #18754F",
"l c #19794E",
"z c #066D50",
"x c #00645F",
"c c #006B5D",
"v c #007250",
"b c #007B50",
"n c #216D4C",
"m c #27764D",
"M c #277950",
"N c #016263",
"B c #0A6463",
"V c #006860",
"C c #166663",
"Z c #00823D",
"A c #008D3D",
"S c #00923C",
"D c #009D3E",
"F c #008344",
"G c #008C43",
"H c #00824A",
"J c #008D4A",
"K c #178D46",
"L c #1A8B49",
"P c #009242",
"I c #009A43",
"U c #1B9044",
"Y c #008754",
"T c #008B53",
/* pixels */
"CBKUULlllkassd1111nnknmmmM5;::$o",
"NNASSAqgffu999=**=uuuuhghj*&&&  ",
"NNGSSSSASA000fjhhp8rr3-X%Xpvph46",
"NNPSSSSSSAqq00hjjhrreeXXXXzvhh46",
"NNGSSSSSSAqqqfhjhhrre3XXXXphhh46",
"NNGASASSSGq0fghhhh8ryr--OOphhp86",
"NNGSASGGGG99uubjjjGGAJyrrigHFgrw",
"NNJSSPPJJJ9u99bbbHPSSPyiiiFZFHew",
"NNGSSPJJJHuu99jjjHISSPyiiyFZZF4w",
"NNGAAPJJJJ9999jjjjGSPJyiiyjgFHrw",
"NNNNNx0f0qASAA<2<3.X.%,333&&XX++",
"NNNNNxfffqSSSA2<<<. ..,,33X XX##",
"BNNNNNfffqSSSS3<<<  ..,33,X. X$#",
"NNNNNxfffZSSSA2223.%X%;,,,XXXX++",
"NNNNNcGGGF9huhJTTTgZqf;---333322",
"BNNNNcSGGGuuuuTTTTZZZf*--;333<72",
"NNNNNcGGGFuuyhTTTJqZZq;--;333382",
"VNNNNcGHJHfufuTTYTgggf=;;;343477",
"NNNNNNNNNxGAGF;<;;,;;<PPPPHggh9y",
"BNNNNNNNNcGAAA->>>>>>;PDDIZHHHuy",
"NNNNNNNNNxGSAG->>->>O;PDDDFHjHyy",
"NNNNNNNNNcGGGG*---;--;JIIIHjjHyy",
"NNNNNNNNNNNNNNHHHHHHHg2e34rrrr->",
"BNNNNNNNNNNNNNHFGFAZAFeewerrrr>@",
"NNNNNNNNNNNNNNHGGZGZGFreeerrrew@",
"NNNNNNNNNNNNNNHHFHFFFj4eeerrrr>@",
"BNNNNNNNNNNNNNNNNNNNNx7444uyyy*&",
"BNNNNNNNNNNNNNNNNNNNNN77849uu9*%",
"BNNNNNNNNNNNNNNNNNNNNN7277uuuu*%",
"BNNNNNNNNNNNNNNNNNNNNN7884yyuy;*",
"BNNNNNNNNNNNNNNNNNNNNNNNNNNNNNNN",
"CBVVNNNNNNNNNNtNtxNNBVVNNBNNtNtt"
};
