/* XPM */
static char *downright_corner1680690666[] = {
/* columns rows colors chars-per-pixel */
"32 32 73 1 ",
"  c #003524",
". c #003B26",
"X c #013B2B",
"o c #1A322B",
"O c #013E32",
"+ c #0A3D34",
"@ c #003D3A",
"# c #143933",
"$ c #183A30",
"% c #004226",
"& c #00432B",
"* c #004C2B",
"= c #00502B",
"- c #004534",
"; c #004B34",
": c #0D4C35",
"> c #00423A",
", c #004F39",
"< c #005435",
"1 c #0D5135",
"2 c #005B34",
"3 c #00533A",
"4 c #015C3B",
"5 c #145635",
"6 c #185438",
"7 c #006135",
"8 c #00613B",
"9 c #006A3F",
"0 c #00773F",
"q c #007B3D",
"w c #024A43",
"e c #005543",
"r c #005A42",
"t c #035E5E",
"y c #006445",
"u c #006B43",
"i c #00634A",
"p c #026D4D",
"a c #126547",
"s c #196549",
"d c #007742",
"f c #007B42",
"g c #00744D",
"h c #007B4B",
"j c #18754F",
"k c #19794E",
"l c #066D50",
"z c #00645F",
"x c #006B5D",
"c c #007250",
"v c #007B50",
"b c #216D4C",
"n c #27764D",
"m c #277950",
"M c #016263",
"N c #0A6463",
"B c #006860",
"V c #166663",
"C c #00823D",
"Z c #008D3D",
"A c #00923C",
"S c #009D3E",
"D c #008344",
"F c #008C43",
"G c #00824A",
"H c #008D4A",
"J c #178D46",
"K c #1A8B49",
"L c #009242",
"P c #009A43",
"I c #1B9044",
"U c #008754",
"Y c #008B53",
/* pixels */
"o 6556wwww+##+22778yiyO>@@&%%-Mt",
"$ 4474er4r+##+2777uuuu>>>>**=<Mt",
":&gppghGDGXX X3333dGhhrrrriyuuMt",
":&ggggDDCGX XX3333hGGhrrrruuuyMM",
":&ccggfCCD%.XX3334fGGhrrrry9uuMz",
":*pplpfDDh&XXX3333DDCGreeruuyytz",
"mhXXXXyiiy,,<,--;,LPPP4eee472yMM",
"nhX+X-iiii33,,-->;ASSP3eee4788MM",
"nd&XXOiiii333,---*ASSP3eee7778Mz",
"ng&OX-yyuy,,,,;*,<FLLH4rre2778MN",
"jue33rHLLF.X..0qqd;;,*GDGGMzMzMN",
"burerrFAAF...XCCCf;>>-GCCDMMMMMM",
"burre4FASF.. .qCCf,->-GZCGMMMMMM",
"b94r4yFLLF.. %fCCf;>O-GCFDMMMMMz",
"1=ggcghGGf3<3<YYYU;>--GFFDMMMMMz",
"1=gggghhhh23<2YYYU;>--GDFGMMMMMt",
"1=ghhgvhhh2<<2YYYY3>>;GFDDMMMMMt",
"1*ghghvhvg2=22YYYY,--*hDFGMMMMMM",
"sudfddu9u9ZZZZupuuCZFDMMMMMMMMMM",
"s9dqqdu999AAAAuuudFZZHMMMMMMMMMM",
"a900q099u9AAAAduupCALFMMMMMMMMMM",
"au0qq09999ZAALuuuuFZFFMMMMMMMMMM",
"jdZZZZFHGHqqqCDFFGxzxxMMMMMMMMMM",
"kdAAAAHHHHd0ddFFFHMMMMMMMMMMMMMM",
"kfAAAAFHHHddddFFFGMMMMMMMMMMMMMM",
"kqZAAAHFLHddddFZFHMMMMMMMMMMMMMM",
"KAAAAAALLFzzMxxxxxMMMMMMMMMMMMMM",
"IAAAAZAAAZMMMMMMMMMMMMMMMMMMMMMM",
"IAZAAZAAAFMMMMMMMMMMMMMMMMMMMMMB",
"JAFLFFFFLHMMMMMMMMMMMMMMMMMMMMMM",
"NMMMMMMMMMMMMMMMMMMMMMMMMMMMMMMN",
"VMMMMMMMMMNMMMMNMNMMNMMNMMNMNMNV"
};
