/* XPM */
static char *_0966ffedc35486e9d74eca822d10a1dJlfqlW5Qv3YyK4ag[] = {
/* columns rows colors chars-per-pixel */
"32 32 81 1 ",
"  c #003524",
". c #003B26",
"X c #013B2B",
"o c #1A322B",
"O c #013E32",
"+ c #0A3D34",
"@ c #003D3A",
"# c #143933",
"$ c #183A30",
"% c #004226",
"& c #00432B",
"* c #004C2B",
"= c #00502B",
"- c #004534",
"; c #004B34",
": c #0D4C35",
"> c #00423A",
", c #004F39",
"< c #005435",
"1 c #0D5135",
"2 c #005B34",
"3 c #00533A",
"4 c #015C3C",
"5 c #145635",
"6 c #185438",
"7 c #006235",
"8 c #00613A",
"9 c #006A3E",
"0 c #007136",
"q c #00733C",
"w c #007D3B",
"e c #024A43",
"r c #005543",
"t c #005A43",
"y c #005F5F",
"u c #006345",
"i c #006B43",
"p c #00634A",
"a c #006C4A",
"s c #126547",
"d c #196549",
"f c #1F6F4B",
"g c #007542",
"h c #007B43",
"j c #00734C",
"k c #007B4B",
"l c #18754F",
"z c #167F4C",
"x c #19794E",
"c c #066D50",
"v c #00615C",
"b c #007250",
"n c #007B50",
"m c #177E51",
"M c #1C7B52",
"N c #216D4C",
"B c #27764D",
"V c #28774D",
"C c #277950",
"Z c #337955",
"A c #36775B",
"S c #35785A",
"D c #006263",
"F c #407A5B",
"G c #00823D",
"H c #008D3C",
"J c #00913C",
"K c #009D3E",
"L c #008444",
"P c #008C43",
"I c #00824A",
"U c #008C4A",
"Y c #15804C",
"T c #19804F",
"R c #1A8B49",
"E c #009242",
"W c #009A43",
"Q c #1B9044",
"! c #008754",
"~ c #008B53",
"^ c #178050",
/* pixels */
"FZQQQRxxMlssdd1111NNffBVVC:;::$o",
"ZYJJJHwhhgi9i9=**=iiiijjhk**&&  ",
"S^EJJJJHJHhgqgjjjju4t4&XXXcbbj46",
"S^JJJJJJJJwqqhkkjb4rr3OOXXcbjj25",
"S^JJJJJJJHwwwgjkkjttr4XXXXcjbb86",
"STPHJJJJJHwqghkjjb8ttt->OXcjja86",
"S^EJJJEPEU9iiinnkkPPPPuttpILhhte",
"A^PJJEUUUI9i99nnnIEJJEipppLGLIre",
"AMEJJJUUUUii99knkIEJJEuppaIGLLte",
"SmPJHPUUUU9i99jkkkEEEUuppuhLLhte",
"AMqqqqwgqwHHJH2223...%,33,&XXX++",
"AMqqqggggwJJJH<<<<. ..,33,X.XX#$",
"ZMqqqqgggGJJJJ<<<3. ..;,3,X..X$$",
"ZB0qqqghghEHJH22<3%.&.,,,,XXXX++",
"ZzHJJJHPPLigig!~~!wwGg*---3333<2",
"ZmHJJJHPEPiiia~~~~GGGg;--;333<72",
"ZYJJJJHPPPiaai~~~ULGGw;--;333322",
"ZYJJJJPLPLiiig~!!!hhhg<*;;434377",
"ZYHHJHjjajPHPG<,,;,;;<EEEELkkhiu",
"ZYJJJGiaajPJJP->->>>>;EKKWLLLkiu",
"ZYJJJPaaaaPJJP->>->>>;EKWWLLkIiu",
"ZYHJHPijagUPUP*--&---*UWWWLkkkip",
"SzHJJPigggt4t4IIIIILIk4343ttt4>>",
"SYHJJHq9gittrtLPLPPGHLrrrrtrtt>@",
"ZzHHJPqgqittttPLLPLHPLtrrrtttre@",
"ZzHJJHqqqq8tt8IPLLLGGk4rrrrttt>@",
"ZzHHHHwwwGEPPP788790092444iuuu*&",
"ZYHJHHwGwGPPPU8888aiiipttpiii9*%",
"ZYJJHH0GGhDDDD828uDDDDDDDDuiii*%",
"ZYHJHH0wwhDDDDvyvvDDDDDDDDii9i*%",
"DDDDvDcvvDDDDDDDDDDDDDDDDDvyyyyy",
"DDDDDDDDDDDDDDDDDDDDDDDDDDDDDDDD"
};
