/* XPM */
static char *_7ea7a9c10f1445efe6560f27654ae7aazkvqI2wIdJlbnMi[] = {
/* columns rows colors chars-per-pixel */
"32 32 43 1 ",
"  c #3D253B",
". c #A17877",
"X c #4D9E46",
"o c #4EA247",
"O c #4EA547",
"+ c #4FA348",
"@ c #4EA648",
"# c #50A547",
"$ c #54A646",
"% c #57A847",
"& c #58A945",
"* c #58A846",
"= c #5EAB47",
"- c #50A449",
"; c #50A648",
": c #54A748",
"> c #57AA48",
", c #5AAB49",
"< c #5CAB48",
"1 c #5EAD49",
"2 c #63AE46",
"3 c #67AF46",
"4 c #62AD48",
"5 c #66AF48",
"6 c #68B045",
"7 c #6FB345",
"8 c #67B14A",
"9 c #6DB348",
"0 c #77B743",
"q c #70B445",
"w c #79B642",
"e c #77B944",
"r c #75B847",
"t c #7ABA43",
"y c #7AB945",
"u c #78B947",
"i c #7CBB44",
"p c #70B448",
"a c #82BD42",
"s c #84BF45",
"d c #8FC641",
"f c #CCA8A3",
"g c #EBD0C5",
/* pixels */
"OO@@@%&O+oO@OOOoOOOOoOO@OO@@OOOO",
";@;;;66;++@@;@2,@@@@@+O;#11@@@@@",
"@42@@o;;;@;@@;3,;@@;--;;&wy,;;@;",
";11;;+;;;;;;;;#;;;@;;;@;&58%;o@w",
";@;;;;;;OO;;X;;;;@;;s;@;;;;@@-#=",
";;,:;;;;4y;;@-,;;;;@<y;;;;;;-#@;",
";;q=;@;;;o;;;<iq@;@;#;;;@;#@*3=@",
";@;@;++;;@;;@350;@;@#;@;&3OO=i3;",
";;;;;--;;@;;;;;;;;;;X;;;&5;@;;;-",
";@;;;;@;;;;;;      ;@;;;;@;;;;@;",
"s:;;;qd4;;;; fggggf ;;O#;;;X;qq;",
"70;@;@@;-@+ fggggggf ;=:@-;;2ry1",
"0@@;;;;;;@; fggggggf ;7,;;;;;;;;",
";@@+;;;-@;@ fggggggf @@;;;;@;;+-",
";@;;-;@-i@- ffggggff -@;X;;;;;o@",
"a;;;;;;;,;;X ffffff ;;;#-;;#-;;;",
";;;s;;-;;;;; .ffff.  ;;;;;w2@;@;",
";-;;;@o-;;; gf....fg ;;;;-;@;;;3",
";@;@;@;;;@ gffggggffg @;;;;;@;@0",
"-;;;;;;;;; f gffffg f ;w@;;;;-@;",
";@y4;@;s@@;  ..  ..  #;=;;-@-;;;",
";97s;;;;s;;X;  ;;  @;#;;@;;;O;&;",
"@@@@;-;;;;;;#;;;;@-;;;;;;*,@;-y<",
";-@@;@;;;;;;#3@;;;+o&2@;,0w,;;@;",
";@;;<q@;@;;@&5@;;;@;;3;;*0y$;;@;",
";@;@:<;;#O;;@;;;;@;@;;@;;,&;@;@X",
"4i;;@+;;=t;@;;;;XO#;-#@;;-;@;;;@",
";;;@;++-;;-;@;@;Oqq;;;;;@;;;$<;;",
"@+;;;+@;;;;#,5;;;;;@@-@-9;;;<p@;",
"+-;;;35;;;--@w5;;@@;o-;-q;;;X;@;",
";;;;+4<;;;-;;<<;;;-#;;-;-;;;-;;;",
"-@@@+;;;;;;;;;@;;;O;;;;;@;@#-;;;"
};
