/* XPM */
static char *_c237cc116f8490bab621b817feb7776fm7NnrlWfxpFl3el[] = {
/* columns rows colors chars-per-pixel */
"32 32 193 2 ",
"   c #010101",
".  c #001717",
"X  c #1E1E1E",
"o  c #2A0101",
"O  c #2C0101",
"+  c #2B0E09",
"@  c #360201",
"#  c #3E0201",
"$  c #310807",
"%  c #183D16",
"&  c #1A3F17",
"*  c #0D2F3D",
"=  c gray13",
"-  c #430300",
";  c #400A00",
":  c #500000",
">  c #510C04",
",  c #421800",
"<  c #48091F",
"1  c #6E0804",
"2  c #7A0900",
"3  c #53241A",
"4  c #693C16",
"5  c #570634",
"6  c #641237",
"7  c #641438",
"8  c #7E3829",
"9  c #7A2237",
"0  c #24441C",
"q  c #29551F",
"w  c #3F5E1E",
"e  c #2C5520",
"r  c #2A5D25",
"t  c #2E6429",
"y  c #316A2B",
"u  c #326D2D",
"i  c #3C7F35",
"p  c #444309",
"a  c #53461B",
"s  c #7A4F08",
"d  c #7D4315",
"f  c #333B4E",
"g  c #870000",
"h  c #850C05",
"j  c #880D05",
"k  c #8E0D06",
"l  c #9E0000",
"z  c #9B0400",
"x  c #930E04",
"c  c #950F07",
"v  c #9E1008",
"b  c #A00000",
"n  c #A50000",
"m  c #A90000",
"M  c #A80900",
"N  c #B30000",
"B  c #B90000",
"V  c #BE0000",
"C  c #BA0500",
"Z  c #A11108",
"A  c #A61209",
"S  c #AB1309",
"D  c #AC1309",
"F  c #AF140A",
"G  c #AA190C",
"H  c #B2140A",
"J  c #B2170B",
"K  c #B7150B",
"L  c #B5170E",
"P  c #B8150B",
"I  c #BD150A",
"U  c #BC150D",
"Y  c #AA1811",
"T  c #BC2216",
"R  c #BD261A",
"E  c #C20000",
"W  c #C61102",
"Q  c #C61606",
"!  c #C1170C",
"~  c #C2170C",
"^  c #C5170D",
"/  c #C4180D",
"(  c #C4190E",
")  c #C8180D",
"_  c #CC190E",
"`  c #C21E13",
"'  c #C11A15",
"]  c #C31E19",
"[  c #C2221E",
"{  c #83791C",
"}  c #A37F03",
"|  c #A74E36",
" . c #88603F",
".. c #CE4836",
"X. c #C86E59",
"o. c #D6735C",
"O. c #E4664E",
"+. c #E76A51",
"@. c #E76D52",
"#. c #E96E53",
"$. c #EE6F55",
"%. c #EC7156",
"&. c #F3785C",
"*. c #F6785C",
"=. c #F87B5F",
"-. c #CA6D6B",
";. c #DA7761",
":. c #FC7F62",
">. c #3F8339",
",. c #4B8634",
"<. c #4C853B",
"1. c #40883A",
"2. c #428A3B",
"3. c #438C3D",
"4. c #45913E",
"5. c #47943F",
"6. c #5A9B3F",
"7. c #74A93C",
"8. c #479540",
"9. c #4F9740",
"0. c #4B9A44",
"q. c #4B9D44",
"w. c #4D9E46",
"e. c #4CA346",
"r. c #4EA247",
"t. c #4EA547",
"y. c #4FA348",
"u. c #4EA648",
"i. c #54A242",
"p. c #50A547",
"a. c #54A646",
"s. c #58A142",
"d. c #57A847",
"f. c #58A945",
"g. c #58A846",
"h. c #5EAB47",
"j. c #50A448",
"k. c #50A449",
"l. c #50A648",
"z. c #50A64B",
"x. c #54A748",
"c. c #57AA48",
"v. c #5AAB49",
"b. c #5CAB48",
"n. c #5EAD49",
"m. c #63A943",
"M. c #63AE46",
"N. c #67AF46",
"B. c #69AA41",
"V. c #62AD48",
"C. c #66AF48",
"Z. c #68B045",
"A. c #6FB345",
"S. c #67B14A",
"D. c #6DB348",
"F. c #77B743",
"G. c #70B445",
"H. c #79B642",
"J. c #75B847",
"K. c #7ABA43",
"L. c #7AB945",
"P. c #78B947",
"I. c #7CBB44",
"U. c #70B448",
"Y. c #A28002",
"T. c #D39B05",
"R. c #CF8517",
"E. c #D18A16",
"W. c #D28A16",
"Q. c #DD9218",
"!. c #F29B1D",
"~. c #CCA407",
"^. c #CDA20C",
"/. c #E1A000",
"(. c #F1BD08",
"). c #F2A41A",
"_. c #F2A51A",
"`. c #FEBF11",
"'. c #F2C105",
"]. c #FFCC06",
"[. c #FFCE06",
"{. c #82BD42",
"}. c #84BF45",
"|. c #FA8368",
" X c #8FC641",
".X c #918D8D",
"XX c #B5A4A5",
"oX c #B3BCBF",
"OX c #BBBFC2",
"+X c #CAD0D2",
"@X c #D6D9DA",
"#X c #EBDDDD",
"$X c #E8EBEC",
/* pixels */
"t.t.u.u.u.d.f.t.k.r.t.u.t.t.u.y.u.t.t.t.y.u.u.u.u.y.u.u.t.t.t.t.",
"l.u.l.l.l.Z.Z.l.u.l.t.u.l.u.V.v.u.u.u.u.u.y.y.u.i.n.n.t.u.u.u.u.",
"u.V.M.u.u.r.l.l.z.u.i.e.u.l.N.v.l.u.u.u.l.k.l.l.c.F.L.v.l.l.u.u.",
"l.n.n.l.l.y.l.l.u.u.i.q.l.l.i.u.l.l.u.l.l.l.u.u.d.S.S.d.l.r.u.H.",
"l.u.l.l.l.l.l.l.u.u.u.6.q.l.l.l.l.u.l.z. Xy.u.u.l.l.l.u.u.k.i.n.",
"l.l.v.x.l.l.l.l.n.K.7.} 1.>.9.2.l.4.>.Y.Y.{ u.u.l.l.l.u.j.l.u.u.",
"l.l.G.h.l.u.l.l.z.3 ].).(.(.~.5 % ^.(.[._.[.p u.u.l.i.u.g.N.b.u.",
"l.u.l.u.l.y.y.l.y Q.R.R.!.]./.9 , T./.E.E.R.Q.u f.S.t.t.b.I.N.l.",
"l.l.l.l.l.k.k.l.l.3.4.4.s s ; 6 & 5.8.4.3.8.4.l.f.C.l.u.l.l.l.k.",
"l.u.l.l.l.l.u.l.l.l.l.l.l.u.1.7 0 m.B.q.u.l.l.l.l.u.l.l.l.l.u.l.",
"}.x.l.l.l.G. XV.l.l.l.l.t u 2 7 < x h h y 2.u.u.l.l.l.q.l.G.G.l.",
"A.F.l.u.l.u.u.l.l.u.u.+ ! I ( - ! ^ K S J h s.i.u.l.l.l.C.J.L.n.",
"F.u.u.l.l.l.l.l.l.y. .|.+.` ^ _ ) ^ ( J S J o v.l.l.l.l.l.l.l.l.",
"l.u.u.y.l.l.l.k.u.q.X.@.&.T ) ) ^ F ^ ~ F S S r l.l.l.u.l.l.y.k.",
"l.u.l.l.k.l.u.k.I.<.o.#.:.R ( ( ~ K ) ~ F S F a 0.l.l.l.l.l.y.u.",
"{.l.l.l.l.l.l.l.v.3 *.:.O.( ) ^ ^ ^ F ) ^ K K Z 3.l.l.k.k.l.l.u.",
"u.u.e. Xl.u.i.t.r.8 =.#.B P C W ^ ) ) ( ^ L E J 8.u.H.M.u.l.u.l.",
"z.y.u.l.l.u.u.0.| =.*...z   .X-.^ ^ ) ~ 1   #Xb 8.l.l.u.l.l.l.N.",
"z.u.l.u.l.u.l.5.;.$.N ) k O   m [ [ ' ] @ $   Y 4.l.l.l.u.l.u.J.",
"k.l.l.l.l.l.u.5.l V ) ^ ( ^ ^ g +XOX* XXI ( ( d q.l.l.l.l.k.u.l.",
"l.u.P.V.z.u.l.7.Z I ` ) ( ) ^ : = X   . P ^ _ e l.l.k.u.k.l.l.l.",
"l.D.G.}.u.u.l.l.a T ) ! ~ ( ( >         P _ O l.u.l.l.l.r.l.f.l.",
"u.u.u.u.l.i.l.l.u.# v J D U Q O $X@Xf oXU A 5.l.l.g.v.u.l.l.L.b.",
"l.y.y.u.l.u.l.u.u.t.>.q 4 c A G l l M n q ,.u.l.v.H.H.v.l.l.u.l.",
"l.u.l.l.b.G.u.l.u.u.u.u.s.s.3.8.8.4.4.4.x.M.l.l.f.J.L.g.u.l.u.l.",
"l.u.l.u.x.b.l.l.i.r.l.l.u.u.l.l.l.u.l.u.l.l.u.l.l.v.f.l.u.l.u.q.",
"V.I.l.l.l.k.l.l.h.K.l.u.l.l.l.l.q.u.l.l.k.j.u.l.j.l.l.u.l.l.l.u.",
"l.l.l.u.l.u.y.k.l.l.k.l.u.l.u.l.u.G.U.u.u.i.l.l.t.l.l.l.x.b.l.l.",
"u.y.l.l.l.k.k.l.l.l.l.l.v.C.l.l.l.l.l.u.u.k.u.k.D.l.l.l.b.U.l.l.",
"k.y.l.l.l.V.C.l.l.l.k.k.l.H.C.l.l.u.u.l.k.k.l.k.G.l.l.l.q.l.u.l.",
"l.l.l.l.t.V.b.l.l.l.l.l.l.b.b.l.l.l.l.l.l.l.k.l.k.l.l.l.k.l.l.l.",
"k.u.l.u.y.l.l.l.l.l.l.l.l.l.u.l.l.l.y.l.l.l.l.l.u.l.u.l.k.l.l.l."
};
