/* XPM */
static char *acbafac06d7f4517816f19a1b179d33bmY8ILWLV6k59LHe4[] = {
/* columns rows colors chars-per-pixel */
"35 32 201 2 ",
"   c None",
".  c #131523",
"X  c #131624",
"o  c #141725",
"O  c #151727",
"+  c #151827",
"@  c #101D27",
"#  c #161929",
"$  c #171A2B",
"%  c #171A2C",
"&  c #181B2C",
"*  c #181B2D",
"=  c #181B2E",
"-  c #191C2E",
";  c #191C2F",
":  c #191D2F",
">  c #1A1D30",
",  c #1A1D31",
"<  c #1A1E31",
"1  c #1A1E32",
"2  c #1B1E32",
"3  c #1B1E33",
"4  c #1B1F33",
"5  c #1B1F34",
"6  c #1C1F34",
"7  c #11202A",
"8  c #12222D",
"9  c #13232F",
"0  c #132430",
"q  c #142632",
"w  c #152734",
"e  c #1C2034",
"r  c #1C2035",
"t  c #1D2036",
"y  c #1D2136",
"u  c #1D2137",
"i  c #1E2137",
"p  c #162835",
"a  c #1E2138",
"s  c #1E2238",
"d  c #1E2239",
"f  c #1F2239",
"g  c #1F223A",
"h  c #1F233A",
"j  c #1F233B",
"k  c #172B39",
"l  c #192E3E",
"z  c #192F3F",
"x  c #20233B",
"c  c #20243B",
"v  c #20243C",
"b  c #20243D",
"n  c #20253D",
"m  c #21253D",
"M  c #21253E",
"N  c #21263E",
"B  c #21263F",
"V  c #22263F",
"C  c #1B3142",
"Z  c #1B3343",
"A  c #1B3345",
"S  c #1C3546",
"D  c #1E3648",
"F  c #1E3748",
"G  c #1F3A4D",
"H  c #1F3F55",
"J  c #1E3F56",
"K  c #222640",
"L  c #222740",
"P  c #232740",
"I  c #222741",
"U  c #232741",
"Y  c #232742",
"T  c #232842",
"R  c #232843",
"E  c #242842",
"W  c #242843",
"Q  c #242943",
"!  c #242944",
"~  c #252944",
"^  c #252945",
"/  c #252A45",
"(  c #252A46",
")  c #262A46",
"_  c #262B47",
"`  c #272B48",
"'  c #272C48",
"]  c #272C49",
"[  c #282C4A",
"{  c #282D4A",
"}  c #282D4B",
"|  c #292D4B",
" . c #292E4B",
".. c #292E4C",
"X. c #292E4D",
"o. c #2A2E4D",
"O. c #2A2F4D",
"+. c #2A2F4E",
"@. c #2B2F4E",
"#. c #2A304E",
"$. c #2A304F",
"%. c #2B304F",
"&. c #203B4F",
"*. c #2B3050",
"=. c #2B3150",
"-. c #2B3151",
";. c #2C3150",
":. c #2C3151",
">. c #2C3152",
",. c #2C3252",
"<. c #2D3252",
"1. c #2D3253",
"2. c #2D3353",
"3. c #2D3354",
"4. c #2E3354",
"5. c #2E3355",
"6. c #2E3455",
"7. c #2E3456",
"8. c #2F3456",
"9. c #2F3557",
"0. c #223F53",
"q. c #2F3558",
"w. c #303558",
"e. c #303658",
"r. c #303659",
"t. c #313659",
"y. c #30365A",
"u. c #31365A",
"i. c #31375A",
"p. c #31375B",
"a. c #32375C",
"s. c #32385B",
"d. c #32385C",
"f. c #32385D",
"g. c #32395D",
"h. c #33395E",
"j. c #33395F",
"k. c #333A5F",
"l. c #343A5F",
"z. c #343A60",
"x. c #343B60",
"c. c #343A61",
"v. c #343B61",
"b. c #353B61",
"n. c #353B62",
"m. c #353C62",
"M. c #353C63",
"N. c #363C63",
"B. c #363D63",
"V. c #363C64",
"C. c #363D64",
"Z. c #363D65",
"A. c #373E66",
"S. c #373E67",
"D. c #383F67",
"F. c #383F68",
"G. c #393F69",
"H. c #234054",
"J. c #214056",
"K. c #244257",
"L. c #244258",
"P. c #244358",
"I. c #244359",
"U. c #274458",
"Y. c #25455C",
"T. c #29455A",
"R. c #26485F",
"E. c #27485F",
"W. c #314B5E",
"Q. c #274860",
"!. c #274B64",
"~. c #284960",
"^. c #294C64",
"/. c #294C65",
"(. c #2B4F69",
"). c #324C60",
"_. c #334D61",
"`. c #394069",
"'. c #39406A",
"]. c #39416A",
"[. c #39416B",
"{. c #3A416B",
"}. c #3A416C",
"|. c #3A426C",
" X c #3B426D",
".X c #3B436E",
"XX c #3C436E",
"oX c #3C436F",
"OX c #2B506A",
"+X c #2C516B",
"@X c #2D526C",
"#X c #2E546F",
"$X c #345066",
"%X c #33536B",
"&X c #3E5669",
"*X c #2F5773",
"=X c #305774",
"-X c #315A77",
";X c #385B74",
":X c #3B607C",
">X c #3C617D",
/* pixels */
"  i.>.4.>.%.E ) i.4.>.) 5 -.i.8.>.E m m e x x 4.4.e 9.`.'.'.l.c X.    ",
"  8.>.>.} e - E -.*.) i.d.m #.#.#.x ' q.'.l.' ) -.a >.9.9.9.>.) P     ",
"  >.>.' P >.v.X.P m P -.P - j j m } '.'.m.Z.X.R R c >.>.9.<.>.>.x     ",
"  } } ' i.m.Z.Z.R S.] P a ) v.'.) -.D.v.i.q.e j Z.} } } %.>.%.%.e     ",
"  m m } #.m a . 5 X.5 e m R q.8.e J 4.8.4.' j '.d.8.- j c m m j X     ",
"  i.>.E - , a 4.-.' m Z.J J.P.Q.Q.I.!.J.J.H , ) X.c R G.>.& %.<.4.    ",
"  |.d.-.e d.'.|.G.4.I.U.OX%X%X*X#X@X=XOXQ.Y.Y.T.m - s.d.j ) '.|.|.    ",
"  i.-.a -.|.Z.m.i.I.OXQ.-X*X/.K.K.K.~.-X*X*X+XJ.Z.-.c #.$ m.m.m.v.    ",
"  a a . X.d.d.8.U.P./.R.Q.I.J.S ' S &.S K.~.-X@XI.i.- ) - P ' >.4.    ",
"  #.%.-.a -.8._.Y.U.OXP.J.p q @ @ @ @ @ k K./.=XK.T.e a X.#.E a -     ",
"  -.>.#.E a m W.+X+XK.0.q @ @ @ @ @ @ @ @ k K.=X/.0.-.Z.'.'.d.>.a     ",
"  a & a m i.X.W.#X~.0.0 @ @ @ @ @ @ @ @ @ @ &.U./.K.Z.'.Z.m.'.|.8.    ",
"  ) R d.|.'.'.%X*XK.Z @ @ @ @ @ @ @ @ @ @ @ 8 0.+XI.|.a.i.8.8.s.i.    ",
"  , ' `.v.d.U.-X/.K.@ @ @ @ @ @ @ @ @ @ @ @ @ Z U.@Xv.-.m R m R P     ",
"  X.c 8.4.8.(.*XU.H @ @ @ @ @ @ @ @ @ @ @ @ @ p I.(.E ) R $ m >.a.    ",
"  >.e >.>.4.-X@XK.k @ @ @ @ @ @ @ @ @ @ @ @ @ p I.+XZ.D.s.e s.l.9.    ",
"  >.) & 5 ' -XQ.G @ @ @ @ @ @ @ @ @ @ @ @ @ @ p P.-X$X,.,.e <.8.4.    ",
"  ' m P P P ;XP.0.@ @ @ @ @ @ @ @ @ @ @ @ @ @ p P.-X$Xj j = _ ,.>.    ",
"  P } Z.oX|.&XP.G @ @ @ @ @ @ @ @ @ @ @ @ @ @ w P.U._.y #.#.j & e     ",
"  a m.D.Z.Z.G.v.0.l 0 0 @ @ @ @ @ @ @ @ @ @ @ S P.P._.= i.`.j j v.    ",
"  c -.} ] *...] o a 0.0.C @ @ @ @ @ @ @ @ @ @ H.P.~._.- '.d.m Z.9.    ",
"  c P o $ , , , ) ) ; a S w @ @ l q @ @ @ @ 9 H.I.E._ , `.4.j -.#.    ",
"  , m G.|.G.4.j M.S.q.*.-.0.l l Z 9 @ @ @ @ S P.U.OXE _ l.%.m a a     ",
"  b ] M.a.v.S.*.% j a 5 6 5 H P.G S S @ @ @ P.P.@X@Xc >.9.} R '.'.    ",
"  e ] a.4.q.a.X.e -.v.m.q.P ; ..P.0.P.F @ S I.J.@X-X>Xq.8.P m q.4.    ",
"  P ) *.4.4.4.m #.Z.G.G.|.S.P a v.) , 0.F &.J.P.@X-X;X4.! j -.P e     ",
"  i.' m P *.P & i.Z.v.d.d.d.! P *.! ) ' x . J.T.*X-X>X] 5 v.|.v.m     ",
"  i.i.q...6 P P e a ' ' P a 5 ) ] a 4.|.i.x ..S.Z.#.e m P -.#.' c     ",
"  4.S.|.S.G...P q.`.<.- ' Z.S.! P P M.q.q.m R d.q._ j #.' P P b R     ",
"  4.a.d.v.v.[ P .Xm.s.m i.q.v.s.*.X m ) a ! - e a e m '.oX|.4.] R     ",
"  4.4.*.4.q.] R Z.q.8.X.5 a a m X., ) ! m.d.y v.'.i._ s.a.d.q.j X.    ",
"  d.q.-.4.-.] P >.8.-.X.j d.v.' a a S.oXv.#.j d.d.<.= a a a a 6 4.    "
};
