/* XPM */
static char *_e43498671814004ea3ba8ae48c4997csJuSLRgk4CTj1FMu[] = {
/* columns rows colors chars-per-pixel */
"32 32 53 1 ",
"  c black",
". c #276E7B",
"X c #B73178",
"o c #F00D6A",
"O c #B14156",
"+ c #38B86E",
"@ c #4D9E46",
"# c #4EA247",
"$ c #4EA547",
"% c #4FA348",
"& c #4EA648",
"* c #50A547",
"= c #54A646",
"- c #57A847",
"; c #58A945",
": c #58A846",
"> c #5EAB47",
", c #50A448",
"< c #50A449",
"1 c #50A648",
"2 c #54A748",
"3 c #57AA48",
"4 c #5AAB49",
"5 c #5CAB48",
"6 c #5EAD49",
"7 c #63AE46",
"8 c #67AF46",
"9 c #62AD48",
"0 c #66AF48",
"q c #68B045",
"w c #6FB345",
"e c #67B14A",
"r c #6DB348",
"t c #77B743",
"y c #70B445",
"u c #79B642",
"i c #77B944",
"p c #75B847",
"a c #7AB945",
"s c #78B947",
"d c #7CBB44",
"f c #70B448",
"g c #F68C0A",
"h c #FFC12D",
"j c #82BD42",
"k c #84BF45",
"l c #8FC641",
"z c #A0F072",
"x c #703892",
"c c #405BD0",
"v c #4FA4F7",
"b c #86ECF8",
"n c #F4F4F4",
/* pixels */
"$$&&&-;$%#$&$$$#$$$$%&#&$$&&$$$$",
"1&111qq1%%&&1&74&&&&&%$1*66&&&1&",
"&97&&#111&1&&1841&&11111;ui411&1",
"16611%11111111*111&1     0e31#&u",
"1&111111#$11@1111&  hgnnh 1&&<*>",
"114211119a11&141  Og nhbbh 1<*&1",
"11y>1&111&1115d hhh  ncbvh &:8>&",
"1&1&1%%11&11&8 hnXxhOhcchO $>d81",
"11111<<11&1111 hXoxh  hhgO &1111",
"1&1111&1111111 hxoXn 1 O g 111&1",
"k2111yl91111111 hnn O hhg 1@&wy1",
"wt1&1&&1<&%&1;;1  Oh n+++h 10ia6",
"t&&111111&11<ty1 OO gh+nzn 1&111",
"1&&%111<&1&1&99 ghOOhg.z.h &11%<",
"1&11<1&<d&<1&1 nhg    hnn 1111%&",
"j1111111411@& nhg 4211   1*<<11&",
"111k11%11111 nhg 1%&<11111u8&1&1",
"1<111&%1111 nhg 11&&11111<1&&&18",
"1&1&1&111& nhg $1&1&1&&11111&1&u",
"<11111111 nhg 911881&11u&1111<&&",
"1&s91&1k nhg 1111;d><,1>11<&<111",
"1ryk111 nhggO 1111<&**11&111&1:1",
"&&&&11 nhggOOO 11&<$*$&11:4&1<a5",
"1%%&1 hhggOggO 111<%;8&14uu411&1",
"1&115y ggOhhgg 111&11811=aa=11&1",
"1&1&251 nhhhh 111&1&11&1*4;1&1&@",
"9d111%11 nhh 111@$*1<,&1111&111&",
"111&1&%11   &1&1$yy11*11&111=511",
"&%111111111*4011111&&<&<r1115f&1",
"1%11190111<<&u011&&1#<1<y111@1&1",
"1111%95111<1155111<*11<1<111<111",
"<&1&%111111111&111$11111&1&1<111"
};
