/* XPM */
static char *_4ee3c2873c14ce8a58c905a6fcd429be1iUM1CUWKqe9uXl[] = {
/* columns rows colors chars-per-pixel */
"32 32 63 1 ",
"  c #131523",
". c #131624",
"X c #141726",
"o c #151827",
"O c #151828",
"+ c #161929",
"@ c #171A2B",
"# c #171A2C",
"$ c #181B2C",
"% c #181B2D",
"& c #191D30",
"* c #1B1E32",
"= c #1B1F34",
"- c #1C1F34",
"; c #1C2034",
": c #1D2035",
"> c #1F233A",
", c #1F233B",
"< c #20233B",
"1 c #20243B",
"2 c #20243D",
"3 c #22263F",
"4 c #232742",
"5 c #232842",
"6 c #242843",
"7 c #242944",
"8 c #262B46",
"9 c #272B48",
"0 c #272C48",
"q c #272C4A",
"w c #282D4B",
"e c #292E4B",
"r c #292E4C",
"t c #2B2F4E",
"y c #2A2F4F",
"u c #2A304F",
"i c #2B304F",
"p c #2B3050",
"a c #2D3253",
"s c #2D3353",
"d c #2E3355",
"f c #2F3456",
"g c #2F3557",
"h c #2F3558",
"j c #303659",
"k c #31375A",
"l c #32375C",
"z c #32385B",
"x c #32385C",
"c c #33395F",
"v c #343A60",
"b c #343B60",
"n c #343A61",
"m c #353C63",
"M c #363C64",
"N c #363D65",
"B c #383F67",
"V c #383F68",
"C c #393F69",
"Z c #384068",
"A c #3A426C",
"S c #3C436E",
"D c #3C436F",
/* pixels */
"kaaii68kga4*izga4>4;>>ad;kNAAc<e",
"daae;$6ae8kc3iee>qkAc98i*dggga86",
"aaq3ane335y6#4>3yAAvNy66>yagpae<",
"qqqknNN5Nq6-8vA8iNcgf->Nyqeiaap;",
"3>yp3- *9;;48kk;6adg8<Bkg#>333; ",
"ga5%$4ad84NAd$$;%eye3*8y>6NyOddf",
"Azi;kAAAg9vzn1eNg%41gNa3%zc38AAA",
"zi>yANcgy;5yy$cNz>3eNNANe3p#vbbc",
">; yckhd-e93;4Nd984ycfknk#8#5eaa",
"eay>pda88NAl93ag<3-8kffk>;>yy4;O",
"ayi5>>e-8ANAy33a%8816tay>yNABkd1",
">O>3ke>-aAkdd>8OgAAny<8;8mCbNAAf",
"55zAAAc48yede3p<zAbAZN8%8Scfddkf",
"-8NccnAe#*X43q86nCddkck#eca33666",
"y>ggfzky-pay;658cBffgddX%866X3ak",
"a-paaae8>NACn8;;9daaayaXdNAz;kcg",
"a8$*qqq5qAgcVv8O-<8e1;;-yeaa;aaa",
"q3345> ;aNdaah#9Ba- *aAk361<$9aa",
"3eNAAza 6caaae-NNAky1ANZAn;yy>o-",
";bZNbAv48kaap>9kzcAk3czzbk$cN<6b",
"3ie8aq8 <eyi8=pkafc;3zggf8#Az3Ng",
"<6oO*%*86$;;#X3aaaa*3kagdq*Zg<yy",
"%3CSCf1cBkyane#88ie%eaaap69zi3>>",
"3ynknBio<<;-%>qe3;58%qyee<age3CC",
"*9cdgky<pNbg3#yA78CAw$ ye;ad33hg",
"38yadd<ebAAAB3,n4=9e>>ygy<a8>y3*",
"k934e3$kNckck44e88y> >33O*e*bAz5",
"hkhe-46-;qe3<*88>aAh,wNVp;>5piq>",
"dBAAC95gAa$qNN844vgg34zk8>pq73>8",
"akkcny6Ank3khcki 48>8O;;*3ASAh84",
"daygg85bgde;>;3q&95vc>zAhqzkkg>e",
"cfaaa84kgyy>cny;>NDvp>zcdO>->>*d"
};
