/* XPM */
static char *_9e2394ba3aa4f7db91180a82acc5e94YC1cCPgFrqRN4IUB[] = {
/* columns rows colors chars-per-pixel */
"32 32 88 1 ",
"  c #00311F",
". c #003524",
"X c #0C3025",
"o c #003B25",
"O c #013B2B",
"+ c #1A322B",
"@ c #013E32",
"# c #0A3D34",
"$ c #003D3A",
"% c #143933",
"& c #183A30",
"* c #004226",
"= c #00442B",
"- c #004B2C",
"; c #00502B",
": c #004534",
"> c #004B34",
", c #0D4C35",
"< c #00423A",
"1 c #004F39",
"2 c #005434",
"3 c #0D5135",
"4 c #005B35",
"5 c #00533A",
"6 c #015C3B",
"7 c #145635",
"8 c #185438",
"9 c #006135",
"0 c #006C36",
"q c #00613B",
"w c #006B3C",
"e c #007136",
"r c #00733C",
"t c #007D3B",
"y c #024A43",
"u c #005543",
"i c #005A43",
"p c #006445",
"a c #006B43",
"s c #01634A",
"d c #006D4B",
"f c #0F6C4B",
"g c #166649",
"h c #196549",
"j c #126C4D",
"k c #1F6F4B",
"l c #007542",
"z c #007B43",
"x c #00734C",
"c c #007B4B",
"v c #18754F",
"b c #147D4C",
"n c #19794E",
"m c #096351",
"M c #066D50",
"N c #0A6E51",
"B c #027250",
"V c #0A7351",
"C c #007B50",
"Z c #177E51",
"A c #1C7B52",
"S c #27764D",
"D c #28774D",
"F c #277950",
"G c #337955",
"H c #36775A",
"J c #35785A",
"K c #3C785C",
"L c #407A5B",
"P c #00823C",
"I c #008D3C",
"U c #009337",
"Y c #00923C",
"T c #009D3E",
"R c #008444",
"E c #008C43",
"W c #00824A",
"Q c #008C4A",
"! c #15804C",
"~ c #19804F",
"^ c #1A8B49",
"/ c #009242",
"( c #009A43",
") c #1B9044",
"_ c #008754",
"` c #008B53",
"' c #178050",
"] c #238053",
/* pixels */
"KHGGGGGGGGGGGGGGGGGGHHHHHJJJKJGL",
"]b!!!bb!~!!!!b!bn!AFAA'A''''''~]",
"EYIIIIIYIEIYYIYYYYerwrE///EI/IY)",
"YUIIIIYYYYYIYIUYY/erreYY/YYYYYY)",
"UUIIIIIIYYYIIIYYYYrerrYYYIIYYYY)",
"EUPUIIIIEEEEEIIYYYrrrr//YYYYYYI^",
"VltttPereaadplIIEEtllrQQQEYYYYtn",
"NxttPtrlllxddxQEEEllzlQQQQYUYIzn",
"VxttttrlrrdddxEEEQzzlzQQQ/YYYYzn",
"NxtPPPelaalxaxWRRRttttWWWQEIIIlv",
"mpYYY/piiiQEEElaar/YYIwaawtttzag",
"mp/UUE6ii6EIYEadda/UUIwaaarttrwg",
"MsYYY/iiiiQIIEappdYYUIwawaltrlwh",
"sp/YYEqii6QIEIldalIIIIwwwazzzzwh",
":=q9q9QRRW>::>````4244cCCBxccx-,",
"=-6qq9WERW::<>````4225cCcCBccx-3",
"-=qqq9REEW:<<1_```4254cccCcxcx-3",
"=-qqq9RRRW=:<:````2525zcccxxBx;3",
"fpw0weRREW:<<>zPPz*.oo///Epii6aS",
"faw0wetIIW><<:zPPPo.oo//Y/6uuiak",
"jaw00eRIIR:<@>cPPPOooo/YYEiuuiak",
"Vaww0eWWcc->>2ztzlOoo*Q/EQ655iak",
"bz9994iui5////2>>>>>>1pppp:@@=lS",
"bz99q4uuu6(TT/-:::2555ssss@OOOcD",
"bt9964uuy6((T/>:::1555sssp@O#OzS",
"Zl4696uuu6(((/2:::12>5pppp@OOOxF",
">;awapiii6WRRR5555OOO=cRWcxdMd-,",
"--aaasiiiiccWc5555OooORPPzxxBx-,",
">-waapiii6cWcc6555OOOOzRIzxBBB=,",
"--awwpiiiicWWz5255OOOOWPccxxBd=,",
"O.-;--<y<:pppa9994#%%#iiui6946o&",
"X ***O$$$<pppa9444O%&#yyyy8788.+"
};
