/* XPM */
static char *_32761bebc2149909de783d40e0a33633S2UBYj7FwHdGLtS[] = {
/* columns rows colors chars-per-pixel */
"32 32 48 1 ",
"  c #4B9E45",
". c #4D9E46",
"X c #4D9F47",
"o c #4EA247",
"O c #4CA446",
"+ c #4EA547",
"@ c #4FA348",
"# c #4EA648",
"$ c #50A547",
"% c #54A646",
"& c #57A847",
"* c #58A945",
"= c #58A846",
"- c #58A847",
"; c #5EAB47",
": c #5FAC46",
"> c #50A448",
", c #50A449",
"< c #50A648",
"1 c #50A64B",
"2 c #54A748",
"3 c #57AA48",
"4 c #5AAB49",
"5 c #5CAB48",
"6 c #5EAD49",
"7 c #63AE46",
"8 c #67AF46",
"9 c #62AD48",
"0 c #66AF48",
"q c #68B045",
"w c #6FB345",
"e c #67B14A",
"r c #6DB348",
"t c #73B543",
"y c #77B743",
"u c #70B445",
"i c #79B642",
"p c #77B944",
"a c #76B845",
"s c #75B847",
"d c #7ABA43",
"f c #7AB945",
"g c #78B947",
"h c #7CBB44",
"j c #70B448",
"k c #82BD42",
"l c #84BF45",
"z c #8FC641",
/* pixels */
"++###&*+@o+#+++o+++++++#++##++++",
"<#<<<qq<@@##<#74####<o+<$66###<#",
"#97##o<<<#<##<84<##<,,,<*ip4,<#<",
"<66<<@<<<<<<<<$<<<#<<<#<*0e3,o#i",
"<#<<<<<<++<<.<<<<#<<l<#<<<<#+,$;",
"<<42<<<<9f<<#,4<<<<#5f<<<<<<$<#<",
"<<u;<#<<<+<<<5hu#<#<$<<<#<$#=8;#",
"<#<#<@@<<#<<#80y<#<#$<#<*8++;h8<",
"<<<<<,,<<#<<<<<<<<<<.<<<*0<#<<<,",
"<#<<<<#<<<<<<<<<<8w<#<<<<#<<<<#<",
"l2<<<uz9<<<<<<<<<<<<<<+$<<<.<uu<",
"wy<#<##<,#@#<**<<<#<<<;2#,<<7sf6",
"y##,<<<<<#<<,yu<<<<#,<w4<<<<<<<<",
"<##@<<$>#<#<#99<<<#<<##<<<<#<<@,",
",#<<,<#,h#,<#<<<<#t5<,#<.<<<<<o#",
"k<<<<<<<4<<.#<#<<#42<<<$,<<$,<<<",
"<<<l<<@$<<<<<<#<<,o#,<<<<<i7#<#<",
"<,1<<#@,<<<<<<<+<<<#<<<<<,<#<<<8",
"<#<#<#<<<#<<<97+<#<#,##<<<<<#<#y",
",<<<<<<<<<<##99<<88<#<<i#<<<<,#<",
"<#g9<#<l##<<<<<<<=h;>$<;<<,#,<<<",
"<rul<<<<l<<.<<<<<<>#<$<<#<<<+<*<",
"####<,,<<<<<<<<<<#,<<<<<<=4#<,f5",
"<@@#<#<<<<<<%7#<<<@o*7#<4yi4<<#<",
"<#<<5u#<#<<#*0#<<<#<27<<=yf&#<#<",
"<#<#25<<$+<<#<<<<#<#<<#<<4*<#<#.",
"9h<<$,<<;d<#<<<<.+$<,$#<<,<#,<<#",
"<<<#<#o,<<,<#<#<+uu<<<<<#<<<%5<<",
"#@<<<,$<<<<$40<<<<<##,#,r<<<5j#<",
",@<<<70<<<,,$y0<<##<@@<,u<<<.$#<",
"<<<<+95<<<,<<55<<<,$<<,<,<<<,<<<",
",#<#@<<<<<<<<<#<<<+<<<<<#<#<$<<<"
};
