/* XPM */
static char *leftside1680690667[] = {
/* columns rows colors chars-per-pixel */
"32 32 81 1 ",
"  c #003524",
". c #003B26",
"X c #013B2B",
"o c #1A322B",
"O c #013E32",
"+ c #0A3D34",
"@ c #003D3A",
"# c #143933",
"$ c #183A30",
"% c #004226",
"& c #00432B",
"* c #004C2B",
"= c #00502B",
"- c #004534",
"; c #004B34",
": c #0D4C35",
"> c #00423A",
", c #004F39",
"< c #005435",
"1 c #0D5135",
"2 c #005B34",
"3 c #00533A",
"4 c #015C3C",
"5 c #145635",
"6 c #15563A",
"7 c #185438",
"8 c #006235",
"9 c #00613A",
"0 c #006A3E",
"q c #007136",
"w c #00733C",
"e c #007D3B",
"r c #024A43",
"t c #005543",
"y c #005A43",
"u c #005F5F",
"i c #006345",
"p c #006B43",
"a c #00634A",
"s c #006C4A",
"d c #166649",
"f c #196549",
"g c #1F6F4B",
"h c #007542",
"j c #007B43",
"k c #00734C",
"l c #007B4B",
"z c #18754F",
"x c #167F4C",
"c c #19794E",
"v c #066D50",
"b c #00615C",
"n c #007250",
"m c #007B50",
"M c #177E51",
"N c #1C7B52",
"B c #27764D",
"V c #28774D",
"C c #277950",
"Z c #337955",
"A c #36775B",
"S c #35785A",
"D c #006263",
"F c #407A5B",
"G c #00823D",
"H c #008D3C",
"J c #00913C",
"K c #009D3E",
"L c #008444",
"P c #008C43",
"I c #00824A",
"U c #008C4A",
"Y c #15804C",
"T c #19804F",
"R c #1A8B49",
"E c #009242",
"W c #009A43",
"Q c #1B9044",
"! c #008754",
"~ c #008B53",
"^ c #178050",
/* pixels */
"DDZZZZZZZZZZZZZZZZZZAAAAAAAAASSF",
"DDYYYYxxxYYxYYYxxxNCNN^M^^^^^TTT",
"DDHHHHHJJPPJJJJJJJqw0qPJEPJEEJJQ",
"DDHHHHHJJJJHHHJJJJq0wwJJJJHJJJJQ",
"bbHHHHHJJJJHJHJJJJwwwwHJJJJJJJJQ",
"bbHHHHHHHPPPHPJJJEqwwwEEHJJJJJHR",
"DDeeeGqwwpssphLHHPwhhjUUPEJJJHeC",
"DDeGeewhwhksssPPEPjjhhUUUUJJJJjc",
"DbGGGeqwwhssskLPPPjjhjUUUUJJJJjc",
"DDjjeGwphphkshLUPLeGeeUIUUHHJHhz",
"DDDDUEyyyyPPPPppppJJJP0p00eGejpd",
"DDDDPJyyy4PPJPhsppJJJH00ipwwww0d",
"DDDDPP4yyyPPHPppspHJJH000pjweh0f",
"DDDDPPiyy4UHPHpkphHJHH000pjjjj0f",
"DDb898ULLI*;-;~~~~2<2<lmmmlklk*1",
"DDb999LLLI->>;~~~~2<<<mlmlklkk*1",
"DDb499LLPI-->,!~~~2<<2llllklkk=1",
"Dbbi48PPLI&>O;~~~~<33<llllnknk=1",
"DDDDs0GLPI->>,eGGj....EEJPiyyypB",
"DDDDpqLHHL->>-LGGG. .XEJJEy4t4pg",
"DDDDpqLLLL->O,jLGeX...PJJP4t4tpg",
"DDDDp0LLLl;;;<hwjj....UEEPytt4pg",
"DDDDi2yyt2EEEE<;;;;,,,ippiOXO&kB",
"DDDDi4ttr4WKKE*---<,33aaaaOOXXjB",
"DDDui4ttryWWKE;->-,<,4aaaaOXXXkV",
"DDDDy4ttt2WWWE;>;-,3,<iiayOXXXlC",
"DDasppyyyyILGL433,XXX&lLLlkvvs*:",
"Dup0payyyylLLl4,<3X..XjGGLkkvk*;",
"Db0pppyyyylIll2<33XXXXLLLjknnk&:",
"DbipiiyyyylIIl<<33XXXXILLjkkkv&:",
"Du****>>>>pppp8822+##+yyty4824.$",
"Du%%%&@@@>yiii2822+###rrrr6577 o"
};
