/* XPM */
static char *df7992b3700d467692b5b0d71d860aa4jzNYmpcYX5xZ3xEg[] = {
/* columns rows colors chars-per-pixel */
"32 32 110 2 ",
"   c #003524",
".  c #003B26",
"X  c #013B2B",
"o  c #1A322B",
"O  c #013E32",
"+  c #0A3D34",
"@  c #003D3A",
"#  c #143933",
"$  c #183A30",
"%  c #004226",
"&  c #00432B",
"*  c #004C2B",
"=  c #00502B",
"-  c #004534",
";  c #004B34",
":  c #0D4C35",
">  c #00423A",
",  c #004F39",
"<  c #005435",
"1  c #0D5135",
"2  c #005B34",
"3  c #00533A",
"4  c #015C3C",
"5  c #145635",
"6  c #185438",
"7  c #006235",
"8  c #00613A",
"9  c #006A3E",
"0  c #007136",
"q  c #00733C",
"w  c #007D3B",
"e  c #024A43",
"r  c #005543",
"t  c #005A43",
"y  c #005F5F",
"u  c #006345",
"i  c #006B43",
"p  c #00634A",
"a  c #006C4A",
"s  c #126547",
"d  c #166649",
"f  c #196549",
"g  c #007740",
"h  c #007542",
"j  c #007C41",
"k  c #007F42",
"l  c #007A47",
"z  c #007D46",
"x  c #00724B",
"c  c #007649",
"v  c #00724C",
"b  c #00744C",
"n  c #007848",
"m  c #007949",
"M  c #007B48",
"N  c #007D4B",
"B  c #007A4D",
"V  c #007D4C",
"C  c #18754F",
"Z  c #167F4C",
"A  c #19794E",
"S  c #066D50",
"D  c #00625A",
"F  c #00605F",
"G  c #007250",
"H  c #007B50",
"J  c #177E51",
"K  c #1C7B52",
"L  c #216D4C",
"P  c #26754D",
"I  c #28774D",
"U  c #277950",
"Y  c #337955",
"T  c #36775B",
"R  c #35785A",
"E  c #006160",
"W  c #006263",
"Q  c #407A5B",
"!  c #00813C",
"~  c #00833F",
"^  c #00843D",
"/  c #008D3C",
"(  c #00913C",
")  c #009D3E",
"_  c #008340",
"`  c #008341",
"'  c #008441",
"]  c #008144",
"[  c #008247",
"{  c #008544",
"}  c #008C43",
"|  c #008B47",
" . c #008048",
".. c #00804B",
"X. c #00834A",
"o. c #008C4A",
"O. c #15804C",
"+. c #19804F",
"@. c #1A8B49",
"#. c #009341",
"$. c #009542",
"%. c #009144",
"&. c #009147",
"*. c #009D40",
"=. c #009D41",
"-. c #009847",
";. c #1B9044",
":. c #008754",
">. c #008B53",
",. c #178050",
/* pixels */
"o   6 5 5 6 e e e e + # # + 2 2 2 7 8 u p t > @ @ @ & % % % E E ",
"$   4 4 8 4 t t t t + # # + 2 7 7 7 i i i i - > e - * * * * y W ",
": & v v v v M [ ` N X     X 3 3 3 4 l [ ..V t t r t p i 9 u E W ",
": & v v G x k ` ! [ & X X X 3 3 3 < l [  .V t t r t i i i i y W ",
": & G G G b [ ^ ` j % X . X 3 < r 3 l [ z N t t t t i i i i E W ",
"1 * a a S a M ` ` M & X X X r 3 3 3 z ` { ` t r t t u u i p y W ",
"U b X X X O u p u u 3 , , , - ; , , #.) =.-.4 r r r 4 u W W W W ",
"I M X + X O u p p p 3 , 3 , - - - ; #.) ) #.3 r r r 2 u W W W W ",
"I M X X X O p p p p 3 3 3 , - - - * #.) =.-.3 r r r 4 u F W W W ",
"P c & O X - u u i u , 3 , , * - ; < %.( #.%.4 r t r 2 u E E W W ",
"C i t 3 3 t o.#.( | . X . . w k k g ; ; ; ;  .{ [ [ q i W W W W ",
"L i t r t t } ( ( } . . . X j ! ! j ; > > -  .! ` ' 0 i W W W W ",
"L i t t r 4 } ( ( #.X     % w ! ` j ; > > - [ / ' ! q i W W W W ",
"L i 4 t 4 u | #.#.%.%   . . k ` ! k ; > > ; ` | ' ` 0 a W W W W ",
": = v b G b N V  .B < < < < >.>.o.:., @ @ &  .| ' o.7 4 4 F W W ",
"1 = c b b b B V B M 2 3 < < >.>.>.:.; > - ,  .' ' | 8 8 8 y W W ",
"1 * b x B v B H B B 2 < < 2 :.>.>.>.3 > - -  .{ | { 7 8 8 D E W ",
"1 = b c b v H H H M 2 * 2 2 >.>.>.>., - - * X.{ { X.7 8 7 D W W ",
"f i n j k l 9 9 9 i / / / } c i v i ! ' } | t t t 8 | o.W W W W ",
"f 8 j q w w i 9 9 9 ( ( ( ( i i i i #.( ( | t t t t / | W W W W ",
"d i q w w j i u 8 i ( ( ( ( c i a i / ( #.| 4 t t t / #.W W W W ",
"s i k w w w 9 9 i 9 / ( ( / i i i i ' } } | t t t 8 } ' W W W W ",
"C q / / ( /  .o.o. .w w w k | ' o.' c x c c 9 i g i ! ! z M W W ",
"A l ( ( ( ( o.o.o.o.g k q k } } } ` v a a a q q q q w w ! w W W ",
"K k ( ( ( ( } o.o.o.k c g g } } } | x a a v M q j q w ! ! w D D ",
"A w / ( ( ( | %.%.o.g g g g | / / ^ c a a i 9 q q q w ! w w E D ",
"@./ ( ( ( ( #.( ( } q q g q / ( ( ( / ' ' } ' #.} ` / / / / F W ",
";.( ( ( ( ( / ( ( / q q q q ( ( ( ( / ( ( ( ( ( ( ( / / / ( W W ",
";.( ( ( ( / ( ( ( / q 9 q 0 ( ( ( ( ( ( ( / ( ( ( ( / / / / D W ",
";.( #.#.} ( } #.( | q q q 0 ( ( ( ( / ( / #.} ( / / / / / / W W ",
"Y O.+.+.,.,.Z J J J K K U U O.Z O.O.O.O.O.O.O.O.O.O.O.O.O.O.W W ",
"Q Y R T T R T T T T T R T Y Y Y Y Y Y I Y Y Y Y Y Y Y Y Y Y W W "
};
