/* XPM */
static char *Tree_41681216825[] = {
/* columns rows colors chars-per-pixel */
"32 32 45 1 ",
"  c black",
". c #3E2731",
"X c #733E39",
"o c #D77643",
"O c #3E8948",
"+ c #4D9E46",
"@ c #4EA247",
"# c #4EA547",
"$ c #4FA348",
"% c #4EA648",
"& c #50A547",
"* c #54A646",
"= c #57A847",
"- c #58A945",
"; c #58A846",
": c #5EAB47",
"> c #50A449",
", c #50A648",
"< c #50A64B",
"1 c #54A748",
"2 c #57AA48",
"3 c #5AAB49",
"4 c #5CAB48",
"5 c #5EAD49",
"6 c #63AE46",
"7 c #67AF46",
"8 c #62AD48",
"9 c #66AF48",
"0 c #68B045",
"q c #6FB345",
"w c #67B14A",
"e c #6DB348",
"r c #77B743",
"t c #70B445",
"y c #79B642",
"u c #77B944",
"i c #75B847",
"p c #7ABA43",
"a c #7AB945",
"s c #78B947",
"d c #7CBB44",
"f c #70B448",
"g c #63C74D",
"h c #82BD42",
"j c #84BF45",
/* pixels */
"##%%%=-#$$$%%##@####@@#%##%%####",
",%,,,00,$$%%%%63%%%%,>#,&55%%%,%",
"%86%%@,,,%,%%,73,%%,,>,,-yu3,,%,",
",55,,$,,,,,,%,&,,,%,,,%,-9w2,@%y",
",%,,,,,,%%,,+,,,,%,,j,%,,,,%%>&:",
",,31,,,,8a,,%,3,,,,%4a,,,,,,,,%,",
",,t:,%,,,%,,        &,,,%,&#;6:%",
",%,%,$$,,    OOOOOO   %,-6@@9d6,",
",,,,,,,,  OOOOggggOOO ,,-w,%,,,,",
",%,,,,   OOgggggggggO   &&,,,,%,",
"j1,,,t OOOggggggggggOOO  ,,+,tt,",
"qr,%,  OggggggggggggggOO ,,,6ia5",
"r%%,, OOgggggggggggggggO  ,,,,,,",
",%%$, OggggggggggggggggOO ,%,,>>",
",%,,, OgggggggggggggggggO ,,,,$%",
"h,,,, OgggggggggggggggggO ,&>,,%",
",,,j, OgggggggggggggggggO y6%,%,",
",,<,, OggggggggggggggggOO ,%,,,6",
",%,%, OOggggggggggggggOO  ,,%,,p",
",,,,,  OOOgggggggggggOO  ,,,,,%%",
",%s8,%   OOOOOOOgggOOO  ,,>%>,,,",
",etj,,,,  O    OOOOO   ,%,,,%,;,",
"%%%%,,,,,    .       ,,,,;3%,>a:",
",>>%,%,,,,,,  X... @-6%,3yy3,,%%",
",%,,4t%,%,,%- XXX  ,16,,*aa1,,%,",
",%,%14,,&#,,% oXX ,%,,%,&3-,%,%+",
"8d,,>$,,4p,%, oXX &,>,%,,,,%>,,%",
",,,%&%>>,,,,% ooX t,,,,,%,,,*4,,",
"%$,,,>&,,,,,  XoX  %%,%>e,,,4f%,",
">$,,,69,,,,  XXoXX  $,,>t,,,+&%,",
",,,,@84,,,  X .XX .  ,>,>,,,>,,,",
">%,%$,,,,             ,,%,%,&,,,"
};
