/* XPM */
static char *Tree_31681216825[] = {
/* columns rows colors chars-per-pixel */
"32 32 50 1 ",
"  c black",
". c #020100",
"X c #010501",
"o c #020A02",
"O c #3E2731",
"+ c #733E39",
"@ c #743E39",
"# c #D77643",
"$ c #3E8847",
"% c #3E8848",
"& c #3E8948",
"* c #4D9E46",
"= c #4EA247",
"- c #4EA547",
"; c #4FA348",
": c #4EA648",
"> c #50A547",
", c #54A646",
"< c #57A847",
"1 c #58A945",
"2 c #58A846",
"3 c #5EAB47",
"4 c #50A449",
"5 c #50A648",
"6 c #50A64B",
"7 c #54A748",
"8 c #5AAB49",
"9 c #5CAB48",
"0 c #5EAD49",
"q c #63AE46",
"w c #67AF46",
"e c #62AD48",
"r c #66AF48",
"t c #68B045",
"y c #6FB345",
"u c #67B14A",
"i c #6DB348",
"p c #77B743",
"a c #70B345",
"s c #70B445",
"d c #79B642",
"f c #75B847",
"g c #7AB945",
"h c #78B947",
"j c #7CBB44",
"k c #70B448",
"l c #63C74D",
"z c #82BD42",
"x c #84BF45",
"c c #8FC641",
/* pixels */
"--:::<1-;;-:---=----==-:--::----",
"5:555tt5;;::::q8:::::4-5>00:::::",
":eq::=555:5::5w85::554551dg855:5",
"50055;55555555>555:555:51ru<5=:d",
"5:555555::55*5555:55x5:5555::4>3",
"55875555eg55:585555:9g55555555:5",
"55s35:555:555        555:5>-2w3:",
"5:5:5;;55:    &&&&&&   51q-=ejq5",
"555555555  &&&&llll&&&X51u5:5555",
"5:5555: X &&lllllllll& X >5555:5",
"x7555sc &&&llllllllll&&& X5*5aa5",
"yp5:5:  &llllllllllllll&& 55qfg0",
"p::555 &&lllllllllllllll&  55555",
"5::;55 &llllllllllllllll&& :5545",
"5:5545 &lllllllllllllllll& 555;:",
"z55555 &lllllllllllllllll& >455:",
"555x55 &lllllllllllllllll& w:5:5",
"55655: &llllllllllllllll&& :::5w",
"5:5:5: &&llllllllllllll&&  5:5:d",
"555555  &&&lllllllllll&&  5555:5",
"5:he5:5 X &&&&&&&lll&&&  54:5555",
"5ikx5555cX %    &&&&$ XX:555:515",
"::::555555oX OO    XXo55518:54g9",
"5;;:5:55555:  +OOO =1q::8fd855:5",
"5:559a:5:55:1 @@@  55q552dg,55:5",
"5:5:79555;555 #@@ 5555:55815:5:*",
"ej555;559j5:5 #@@ >545:5545:555:",
"555:5:;55555: ##+ a55555:555,955",
":;5554455555  @#+  ::4:4i5559k:5",
"4;555qr5555  ++#++  ;554a555*5:5",
"5555;e9555X @ O+@ O  54545554555",
"4:5:;5555             55:5:55555"
};
