/* XPM */
static char *_9a4cf49ab16404dda1050daf33909a7RyGdzemqZUDfNY3X[] = {
/* columns rows colors chars-per-pixel */
"32 32 180 2 ",
"   c #030F02",
".  c #051B07",
"X  c #161916",
"o  c #1B1C17",
"O  c #261E19",
"+  c #132513",
"@  c #1B241B",
"#  c #18291B",
"$  c #1B351A",
"%  c #1F3E1E",
"&  c #23221D",
"*  c #28211D",
"=  c #342B1B",
"-  c #213D1E",
";  c #1C3628",
":  c #1B3C2A",
">  c #232D21",
",  c #2D2D29",
"<  c #253727",
"1  c #30322D",
"2  c #373B38",
"3  c #4D2C0D",
"4  c #4A3219",
"5  c #4C311C",
"6  c #543A28",
"7  c #1B441A",
"8  c #26491F",
"9  c #1B422B",
"0  c #15592E",
"q  c #1D4F35",
"w  c #244B21",
"e  c #284A25",
"r  c #2C532B",
"t  c #315D2C",
"y  c #254730",
"u  c #265C3B",
"i  c #3B553A",
"p  c #1F643D",
"a  c #30632B",
"s  c #27613E",
"d  c #5C462C",
"f  c #40553C",
"g  c #744D2E",
"h  c #694931",
"j  c #2F5943",
"k  c #3A5B4B",
"l  c #1E7444",
"z  c #266B43",
"x  c #346A48",
"c  c #26774C",
"v  c #38734D",
"b  c #397453",
"n  c #327951",
"m  c #474C4B",
"M  c #4B7F47",
"N  c #427E57",
"B  c #5D7B56",
"V  c #65735E",
"C  c #5B7963",
"Z  c #677664",
"A  c #AE5C19",
"S  c #B05D1E",
"D  c #9A5C2A",
"F  c #855932",
"G  c #A95D21",
"H  c #9B6130",
"J  c #B66221",
"K  c #A76838",
"L  c #A0714D",
"P  c #B87948",
"I  c #3F823C",
"U  c #338753",
"Y  c #2BA25C",
"T  c #32A45B",
"R  c #389269",
"E  c #3C9F6C",
"W  c #2DA565",
"Q  c #2DAA64",
"!  c #2DA96A",
"~  c #33A665",
"^  c #39A565",
"/  c #33AA64",
"(  c #3CAD64",
")  c #33A669",
"_  c #3BA36B",
"`  c #33A96A",
"'  c #3FAB6C",
"]  c #3AA370",
"[  c #36AA71",
"{  c #4B8B47",
"}  c #54824A",
"|  c #52894C",
" . c #4A9244",
".. c #4D9E46",
"X. c #4E9349",
"o. c #55934F",
"O. c #539F4D",
"+. c #548E52",
"@. c #589255",
"#. c #5F9355",
"$. c #569D51",
"%. c #63845B",
"&. c #659B5E",
"*. c #4EA447",
"=. c #4FA648",
"-. c #51A647",
";. c #57A946",
":. c #5CAA46",
">. c #50A649",
",. c #5BA34B",
"<. c #54A948",
"1. c #5DAC49",
"2. c #47AB5B",
"3. c #57A251",
"4. c #5BA852",
"5. c #5FA15B",
"6. c #64AE46",
"7. c #63AD49",
"8. c #73A64E",
"9. c #6CB245",
"0. c #67B149",
"q. c #6BB248",
"w. c #73B644",
"e. c #76B845",
"r. c #7ABA44",
"t. c #62A55E",
"y. c #408D67",
"u. c #439B6E",
"i. c #4A9B6D",
"p. c #459E73",
"a. c #688664",
"s. c #6B9767",
"d. c #70966D",
"f. c #779974",
"g. c #41AC63",
"h. c #44A66A",
"j. c #50A36F",
"k. c #45B264",
"l. c #57BA67",
"z. c #43A471",
"x. c #6AA566",
"c. c #74A66C",
"v. c #7AB075",
"b. c #5DC87D",
"n. c #68C97C",
"m. c #76CE7E",
"M. c #77D67F",
"N. c #809B7D",
"B. c #88C244",
"V. c #7FB586",
"C. c #6ACE86",
"Z. c #6CD283",
"A. c #7DDA88",
"S. c #7BDE94",
"D. c #78E090",
"F. c #87A983",
"G. c #93B292",
"H. c #8BDE86",
"J. c #87DC8A",
"K. c #95DD87",
"L. c #93DD8B",
"P. c #94D296",
"I. c #A5D59E",
"U. c #85E587",
"Y. c #88E289",
"T. c #8CE48D",
"R. c #92E285",
"E. c #93E48C",
"W. c #89E493",
"Q. c #94E491",
"!. c #9BE193",
"~. c #A2EC9A",
"^. c #AFF09F",
"/. c #9CF3B3",
"(. c #B4EDAC",
"). c #B6E0B1",
"_. c #B3F2B1",
"`. c #C5F8BE",
"'. c #C8EFC3",
"]. c #C7FCC3",
/* pixels */
"*.*.=.=.=.;.;.=.*.*.*.=.*.*.U M I M O.*.=.=.*.=.*.*.*.*.*.=.*.*.",
"=.=.>.=.=.9.6.=.*.*.>.=.=.=., # # i >.>.>.*.*.=.=.1.1.=.=.=.=.=.",
"=.7.6.=.=.*.-.-.=.=.>.>.=.>.Z C j k 3.c.c.=.=.=.;.r.r.1.=.=.=.=.",
">.1.1.=.=.*.-.=.>.=.>.{ 1 V '.).j.i.y 2 >.>.=.>.;.6.0.;.=.*.*.r.",
"=.=.>.>.>.=.>.>.*.>.-.X.f V _.!.2.h.0 y B.4.5.>.-.=.=.=.=.*.=.:.",
"-.=.1.-.>.=.>.>.6.8.a d.).(.K.E.M.S.h.u.k m @.>.=.>.>.=.=.=.=.-.",
"=.=.w.:.=.=.=.>.>.+.& a.(.^.Q.T.H.Y.k._ q : X.>.=.=.-.=.;.9.1.=.",
">.=.=.=.>.*.=.-.>.N.).I.!.Q.Q.Y.l.l.Q [ R y.x t #.q.=.-.:.r.6.-.",
"=.=.>.>.>.=.=.*.+ f.'._.Y.H.E.J.2.T ! ! ] z.s > #.0.>.=.>.>.=.>.",
"=.=.>.>.=.=.=.<.d.d.f.v.E.K.L.W.m.n.^ ] c z *.*.>.=.>.>.>.=.*.>.",
"B.<.=.>.>.w.B.0.<.#.+ B P.L.Q.T.J.Y.( E y # *.*.=.>.>...=.w.w.>.",
"9.r.>.=.-.=.=.=.>.t.V c.L.J.C.Z.n.n.' _ l z ,.,.x.>.*.=.1.e.r.1.",
"e.*.>.*.-.=.=. .e F.`.^.B./.T T W ` ^ ' ) ] j @ +.<.>.>.>.>.>.-.",
"=.=.=.*.>.=.=. .i N._.~.U.D.k.( Y ~ ) ) W E l ; +.x.4.>.>.>.*.*.",
"*.*.=.=.-.=.$ F.`.~.L.E.R.Y.T.D.g.W W ! W W ) p.x ; >.*.=.-.*.=.",
"B.*.=.=.>.3.r F.(.~.L.J.U.U.U.D.) W W W W W W u.v e >.=.>.>.=.>.",
"=.=.=.B.>.>.*.>.i s.!.J.k.k.k.' [ ! Q Q Q Q l 9 =.=.r.1.-.=.=.>.",
"<.=.=.=.>.>...O.. s.!.M.Y Y W W ! Q Q Q Q / p + =.=.=.=.-.>.>.6.",
"=.=.=.=.,.5.+.&.N.H.E.M.Z.b.T / ! Q Q Q Q Q U n =.=.=.=.=.-.-.e.",
"=.=.=.=.=.@.  G.].^.T.T.W.D.( Q Q Q Q Q Q Q Q [ v . =.=.=.=.=.=.",
"=.>.e.0.<.3.B V.W.J.C.C.Z.b./ ~ ! Q Q Q Q Q Q Q c u *.t.v.<.=.>.",
"=.q.q.B.+ P.].A.Y ) W W W W W Q ! Q Q Q Q Y Q ! ` ] b 7 *.>.1.>.",
"=.=.>.>.# F./.C.Q Q Q Q W ` ! ! ! ! ! Q Q ! ! ! ` ! n w =.>.e.1.",
"=.=.>.>.# U / Q Q Q Q Q Q / W ~ ! ! ! ! ! ! ! ! ! ` n 8 >.=.=.=.",
"=.=.>.=.# N z.) ) ) ) ^ _ _ ^ _ z._ _ _ ] E E E ] p.b e -.>.-.=.",
"=.=.>.=.4.} ; : : 9 : : : ; : : : : ; : ; : 9 9 < ; | >.-.-.=...",
"1.r.>.=.>.M X X X X X @ & & O o o @ @ # $ < - % 9 - | >.>.>.=.=.",
">.=.>.>.=.>.$.,.3.3.,.%.& = h g g d = >  .-.*.>.*.-.-.*.-.:.=.=.",
"*.*.>.>.>.>.>.>.>.*.<.f.* 5 H J S H 4 , o.*.=.>.q.>.>.=.:.w.*.*.",
"=.*.>.=.>.7.0.>.-.-.>.f.O 6 K J A G 3 , o.*.=.*.w.=.>.=.>.>.=.=.",
">.-.>.>.>.:.:.>.-.-.-.s.* 6 P K A G 3 1 | =.>.>.=.=.>.>.*.>.=.>.",
">.*.>.>.>.*.>.*.$.t.x.d.* 6 L K D F = , s.x.t.O.*.>.=.>.>.>.>.>."
};
