/* XPM */
static char *Tree_11681216826[] = {
/* columns rows colors chars-per-pixel */
"32 32 50 1 ",
"  c black",
". c #020100",
"X c #010501",
"o c #030701",
"O c #020A02",
"+ c #3E2731",
"@ c #733E39",
"# c #743E39",
"$ c #D77643",
"% c #3E8847",
"& c #3E8848",
"* c #3E8948",
"= c #4D9E46",
"- c #4EA247",
"; c #4EA547",
": c #4FA348",
"> c #4EA648",
", c #50A547",
"< c #54A646",
"1 c #57A847",
"2 c #58A945",
"3 c #58A846",
"4 c #5EAB47",
"5 c #50A449",
"6 c #50A648",
"7 c #50A64B",
"8 c #54A748",
"9 c #5AAB49",
"0 c #5CAB48",
"q c #5EAD49",
"w c #63AE46",
"e c #67AF46",
"r c #62AD48",
"t c #66AF48",
"y c #68B045",
"u c #6FB345",
"i c #67B14A",
"p c #6DB348",
"a c #77B743",
"s c #70B345",
"d c #70B445",
"f c #79B642",
"g c #75B847",
"h c #7AB945",
"j c #78B947",
"k c #7CBB44",
"l c #70B448",
"z c #63C74D",
"x c #82BD42",
"c c #84BF45",
/* pixels */
";;>>>12;:::>;;;-;;;;:-;>;;>>>>-;",
"6>666yy6::>>>>w9>>>>>:;>,qq>>>>>",
">rw>>-666>6>>6e96>>665662fh966>6",
"6qq66:66666666,666>666>62ti26->f",
"6>666666>>66=6666>66c6>6666>>5,4",
"66986666rh66>696666>0h66666666>6",
"66d46>666>66        ,666>6,>3e4>",
"6>6>6::66    ******   >62e;-4ke6",
"66666666  ****zzzz***X662t6>6666",
"6>6666 X **zzzzzzzzz* X 6>6666>6",
"c8666d ***zzzzzzzzzz**%  66=6ss6",
"ua6>6  *zzzzzzzzzzzzzz** 666wghq",
"a>>66 **zzzzzzzzzzzzzzz*  666666",
"6>>:6 *zzzzzzzzzzzzzzzz** 6>66:6",
"6>666 *zzzzzzzzzzzzzzzzz* 6666:>",
"x6666 *zzzzzzzzzzzzzzzzz* 65566>",
"666c6 *zzzzzzzzzzzzzzzzz* fw>6>6",
"66666 *zzzzzzzzzzzzzzzz** 6>666e",
"6>6>6 **zzzzzzzzzzzzzz**  66>6>a",
"66666  %**zzzzzzzzzzz**  66666>6",
"6>jr6> O *******zzz**%  665>6666",
"6psc6666X %    *&*** XO6>666>636",
">>>>66666OXX +     XO666639>65h0",
"656>6>666666  @+++ -2w>69ff966>>",
"6>660s>6>66>2 ##@  68w663ah<66>6",
"6>6>80666:666 $#@ 6>66>66926>6>=",
"rk666:660k6>6 $#@ ,656>6656>666>",
"666>6>556666> $$@ s66666>666<066",
">:6665666666  #$@  >>5>5p6660l>6",
"6:666rt6666  @@$@@  :665s666=6>6",
"6666:r0666X # +@# +  65666665666",
"5>6>:6666             66>6>65666"
};
