/* XPM */
static char *be2b9667a99c4ef9c3129964b70a60596v4DQgPa1GQsUcmN[] = {
/* columns rows colors chars-per-pixel */
"32 32 91 1 ",
"  c black",
". c #011E2F",
"X c #131624",
"o c #171A2B",
"O c #191C2E",
"+ c #1B1E32",
"@ c #012639",
"# c #1D2136",
"$ c #1F2239",
"% c #272727",
"& c #21253D",
"* c gray24",
"= c #012F46",
"- c #01314A",
"; c #023955",
": c #083852",
"> c #023D5A",
", c #232741",
"< c #252944",
"1 c #272C49",
"2 c #292E4C",
"3 c #2B304F",
"4 c #2D3253",
"5 c #2F3558",
"6 c #303659",
"7 c #33395E",
"8 c #363C63",
"9 c #383F67",
"0 c #383F68",
"q c #02405E",
"w c #127258",
"e c #024464",
"r c #094866",
"t c #034A6D",
"y c #044E72",
"u c #04557C",
"i c #3A416C",
"p c #727272",
"a c #CB0C0C",
"s c #8F5A05",
"d c #8D7905",
"f c #D76C0D",
"g c #865053",
"h c #4EB152",
"j c #848217",
"k c #D4930D",
"l c #D0C220",
"z c #681F9C",
"x c #6F22A6",
"c c #055A84",
"v c #055E89",
"b c #05608C",
"n c #066694",
"m c #056A9B",
"M c #076EA0",
"N c #0771A5",
"B c #0875A9",
"V c #0778AE",
"C c #0878AE",
"Z c #087BB3",
"A c #6547AB",
"S c #1C91AF",
"D c #0983BD",
"F c #1B89BD",
"G c #4D81AB",
"H c #6192BC",
"J c #0986C1",
"K c #0A89C6",
"L c #0A8CCB",
"P c #0B93D4",
"I c #0C97DA",
"U c #268FCC",
"Y c #388EC6",
"T c #3C93CD",
"R c #3F9BD8",
"E c #4090C7",
"W c #4595CC",
"Q c #5C95C3",
"! c #5997C8",
"~ c #5C99CA",
"^ c #4099D4",
"/ c #409CD9",
"( c #599ED3",
") c #6B9CC7",
"_ c #619BCB",
"` c #59A1D8",
"' c #6BA1CF",
"] c #6BA1D0",
"[ c #6BA6D7",
"{ c #72A7D5",
"} c #868C94",
/* pixels */
"64424,1643<#3554<&&##&44#4iii7&2",
"4442+O<43167&333#15i7213#455431&",
"441,482&&<3&O&$&1ii882&<&335343&",
"2116888<81<#17i13i755#&82223433#",
"$$22&+X+2##&<55#<4441&i75O&&&&&X",
"64<+O&441&8i4OO##122&+<2&<83O344",
"i74+70i042778&283O&&4i4&o67$<iii",
"54$3i8863#<22O79-q<3i7i83&3o8887",
"$#X17744+21&#&8;JN&274685o1o<134",
"343$444118i72&5@c%$26556&#$22<#O",
"333<#&2+1i90:>yZZZc:<343#38i973&",
"$o$&62&+4i*vLIII`IPLN><+<99889i5",
"<,8i0i8,1 }DI`[R`T(L_PC-<i76-C-5",
"+18778i2oyCPI/`I`[P!LPIJy84&nK-<",
"2$5546rwjdsgLR()/`'!L(IIIZq Dn47",
"4$zxAFShlkfaG[Vm`{'L_PIIIINtP=75",
"41O+111  -eMI]^(I(THKPPPKt  DB54",
"1&&<,$X+4-nLLL~W_LYHDLLb-&&&vK;3",
"&28ii74X1 pmLE!LQYQDDNqii8#22qo#",
"#8088i8$15 ;mZZLUPZmr.6795O78&$8",
"&421321X$1241=>uuue=&75441Oi7&85",
"&&Xo+++11o#+oX$=Ny4+&64441+95&32",
"+&9i04$8062481O<NZ2O244421174&&#",
"&286883o$$#++#13&t<1O2221&452&0i",
"+184572&3885&O3i<1ii1#X32#44,&54",
"&12444&28iiii&$7<+13$#242&4,&4&#",
"62&&2&o687777<&2&11$X$&&oO2+8i7&",
"6652&&&&#12&#+11$4i6$2i82#&,331&",
"49i092,684O18i<<<855&<751#32<&&<",
"477871,i87&75763X$1$<O###&iii51&",
"442441,9541###&3+1<87#7i517665&2",
"764442,4442&772##8i73$773O#&###4"
};
