/* XPM */
static char *_30cd27a810f4db6c0f2fec025800c11i4nl4MbwmjQJc9Bm[] = {
/* columns rows colors chars-per-pixel */
"32 19 150 2 ",
"   c None",
".  c black",
"X  c #011E2F",
"o  c #012639",
"O  c #272727",
"+  c gray24",
"@  c #012D44",
"#  c #012E46",
"$  c #012F46",
"%  c #012F47",
"&  c #013048",
"*  c #003049",
"=  c #023048",
"-  c #02354E",
";  c #023650",
":  c #023651",
">  c #023751",
",  c #023854",
"<  c #023955",
"1  c #023A56",
"2  c #023B57",
"3  c #083852",
"4  c #023D5A",
"5  c #023E5B",
"6  c #02405E",
"7  c #127258",
"8  c #034261",
"9  c #004363",
"0  c #034565",
"q  c #034666",
"w  c #094866",
"e  c #03486A",
"r  c #03496C",
"t  c #044C6E",
"y  c #034D71",
"u  c #044E71",
"i  c #044E72",
"p  c #044F73",
"a  c #04547B",
"s  c #04557C",
"d  c #727272",
"f  c #CB0C0C",
"g  c #8F5A05",
"h  c #8D7905",
"j  c #D76C0D",
"k  c #865053",
"l  c #4EB152",
"z  c #848217",
"x  c #D4930D",
"c  c #D0C220",
"v  c #681F9C",
"b  c #6F22A6",
"n  c #045A84",
"m  c #055A84",
"M  c #055E89",
"N  c #05608C",
"B  c #056493",
"V  c #066694",
"C  c #066795",
"Z  c #066898",
"A  c #066999",
"S  c #036D9F",
"D  c #066EA0",
"F  c #076EA0",
"G  c #0770A3",
"H  c #0771A3",
"J  c #0771A5",
"K  c #0772A5",
"L  c #0773A6",
"P  c #0773A7",
"I  c #0875A9",
"U  c #0876AB",
"Y  c #0778AE",
"T  c #0878AD",
"R  c #0879AF",
"E  c #087AB0",
"W  c #087AB1",
"Q  c #087CB3",
"!  c #097DB6",
"~  c #087EB6",
"^  c #6547AB",
"/  c #1C91AF",
"(  c #0980BA",
")  c #0981BB",
"_  c #0982BC",
"`  c #0984BF",
"'  c #0A85BF",
"]  c #1B89BD",
"[  c #4D81AB",
"{  c #6192BC",
"}  c #0985C0",
"|  c #0A85C1",
" . c #0A87C3",
".. c #0A88C5",
"X. c #0A89C6",
"o. c #088AC7",
"O. c #0A8AC7",
"+. c #0A8BC8",
"@. c #0A8BC9",
"#. c #0A8BCA",
"$. c #0A8CCA",
"%. c #0B8CCB",
"&. c #098DCC",
"*. c #0A8DCC",
"=. c #088ECD",
"-. c #0B8ECE",
";. c #0B8FCF",
":. c #0B90D0",
">. c #0B92D3",
",. c #0B93D4",
"<. c #0B93D5",
"1. c #0B94D5",
"2. c #0A94D6",
"3. c #0C94D6",
"4. c #0C96D9",
"5. c #0C97D9",
"6. c #0C97DA",
"7. c #0C97DB",
"8. c #268FCC",
"9. c #388EC6",
"0. c #3C93CD",
"q. c #3F9BD8",
"w. c #4090C7",
"e. c #4191C8",
"r. c #4595CC",
"t. c #5B92C0",
"y. c #5996C7",
"u. c #5C97C6",
"i. c #5997C8",
"p. c #5999CB",
"a. c #5F99C9",
"s. c #4099D4",
"d. c #409CD9",
"f. c #409DDA",
"g. c #419DDA",
"h. c #599CD0",
"j. c #599DD2",
"k. c #599ED3",
"l. c #6798C2",
"z. c #6B9CC7",
"x. c #619BCB",
"c. c #59A1D8",
"v. c #6BA1CF",
"b. c #67A2D2",
"n. c #6BA1D0",
"m. c #6BA5D6",
"M. c #6BA6D6",
"N. c #6BA6D7",
"B. c #72A7D5",
"V. c #868C94",
/* pixels */
"                                                                ",
"                                ; 4                             ",
"                              < } J                             ",
"                              o m O                             ",
"                        3 4 p Q W W m <                         ",
"                    + N *.6.6.5.c.6.>.#.L 4                     ",
"                  . V.} 6.c.N.q.c.s.k.#.a.1.W *         ; T $   ",
"                  u T 1.6.d.c.5.c.m.>.i.$.1.6. .u       V ..-   ",
"            w 7 z h g k $.q.k.z.d.c.v.i.$.k.7.7.6.W 5 . ' C     ",
"    v b ^ ] / l c x j f [ N.Y Z c.B.v.$.x.,.7.7.6.6.H t -.=     ",
"              . . * 9 S 1.n.s.k.1.k.0.l...>.1.1...r . . ) I     ",
"                  ; B #.-.-.p.r.x.=.9.{ ` +.-.M *       N O.1   ",
"                  . d D #.w.u.#.i.9.t.) _ J 8             6     ",
"                    . < A R ! *.8.*.! F q X                     ",
"                          $ 4 s s a q @                         ",
"                              $ H u                             ",
"                                J Q                             ",
"                                  r                             ",
"                                                                "
};
