/* XPM */
static char *_3cf372bab8643a086ffdaba6708b9b0Ny8Rn0oZFEP3sWKR[] = {
/* columns rows colors chars-per-pixel */
"32 32 99 2 ",
"   c #003524",
".  c #003B26",
"X  c #013B2B",
"o  c #1A322B",
"O  c #013E32",
"+  c #0A3D34",
"@  c #003D3A",
"#  c #143933",
"$  c #183A30",
"%  c #004226",
"&  c #00432B",
"*  c #004C2B",
"=  c #00502B",
"-  c #004534",
";  c #004B34",
":  c #0D4C35",
">  c #00423A",
",  c #004F39",
"<  c #005435",
"1  c #0D5135",
"2  c #005B34",
"3  c #00533A",
"4  c #015C3B",
"5  c #145635",
"6  c #185438",
"7  c #006135",
"8  c #00613B",
"9  c #006A3F",
"0  c #00773F",
"q  c #007B3D",
"w  c #024A43",
"e  c #005543",
"r  c #005A42",
"t  c #035E5E",
"y  c #006445",
"u  c #006B43",
"i  c #00634A",
"p  c #026D4D",
"a  c #126547",
"s  c #166649",
"d  c #196549",
"f  c #1F6F4B",
"g  c #007742",
"h  c #007B42",
"j  c #00744D",
"k  c #007B4B",
"l  c #18754F",
"z  c #19794E",
"x  c #066D50",
"c  c #00645F",
"v  c #006B5D",
"b  c #007250",
"n  c #007B50",
"m  c #27764D",
"M  c #28774D",
"N  c #016263",
"B  c #0A6463",
"V  c #006860",
"C  c #166663",
"Z  c #00823D",
"A  c #008D3D",
"S  c #00933A",
"D  c #00923B",
"F  c #009439",
"G  c #009539",
"H  c #00933C",
"J  c #00903E",
"K  c #00903F",
"L  c #00953C",
"P  c #009D3E",
"I  c #008742",
"U  c #008244",
"Y  c #008344",
"T  c #008545",
"R  c #008447",
"E  c #008941",
"W  c #008D43",
"Q  c #008846",
"!  c #008C44",
"~  c #00804A",
"^  c #00814A",
"/  c #008549",
"(  c #00874C",
")  c #00884A",
"_  c #008D48",
"`  c #008F49",
"'  c #008D4C",
"]  c #178D46",
"[  c #1A8B49",
"{  c #009040",
"}  c #009341",
"|  c #009243",
" . c #009A43",
".. c #1B9044",
"X. c #008754",
"o. c #008A53",
"O. c #008955",
"+. c #008D55",
"@. c #008F54",
/* pixels */
"C B B B N B N B N B N B N N N B N B N N N N N N N N N N N N N C ",
"B N N N N N N N N N N N N N N N N N N N N N N N N N N B N N N B ",
"V N N N N N N N N N N N N N N N N N N N N N Q ! _ W W W A W A ] ",
"V N N N N N N N N N N N N N N N N N N N N V A F | A A D F A D ..",
"N N N N N N N N N N N N N N N N N N N N N N J F J J A A J F F ..",
"N N N N N N N N N N N N N N v v V V v c c N ! ! J A F D J J A [ ",
"N N N N N N N N N N N N N N E A | W h g g 0 _ _ _ ! D F F A q z ",
"N N N N N N N N N N N N N N Q ! ! ! g g g g ' _ ' ` F D F J h z ",
"V N N N N N N N N N N N N N Q ! W Q g h g h ` _ ` ! D D D A q z ",
"N N N N N N N N N N v c c v T T E T Z q q q / / ) ) A A A A g l ",
"N N N N N N N N N N Q W W W u u u g J J A A 9 9 u 9 q q q g u a ",
"N N N N N N N N N N Q J J A u u u u F F J D 9 9 u u q q q 0 9 s ",
"N N N N N N N N N N ! J A W g p p u J J D A 9 9 9 u g q q 0 9 s ",
"N N N N N N N N N N ) A W Z u u u u A F A A 9 9 9 u g h 0 g 9 d ",
"N N N N N N ~ T T ~ * - - , o.@.@.o.2 < < 2 k n k k j k k j * 1 ",
"N N N N N N ~ I I ~ - > - , O.@.@.o.2 < < 4 k n k n j k j j * 1 ",
"N N N N N N / I E ~ - - - , X.@.@.X.2 < < 2 k k k k j k j j * 1 ",
"t N N N N N T I I ~ - - - - X.@.@.( < 3 3 < k k k k j j j j = 1 ",
"N N N N N N U E E ~ - > > - h Z Z h %   . & W | L ! y r r r u m ",
"B N N N N N / Z A T - > > , h Z Z Z .     . A L L ! 4 e e 4 u f ",
"N N N N N N / I Z ~ - > - - U Z Z q &     % | L L ! r 3 3 r u f ",
"c N N N V v h T T ~ * - - < g q h g .   . . ) A | Q r e e 4 u f ",
"N N 7 7 7 2 4 r e 4 _  .} W * - ; ; < , 3 , y p u y - X O & j m ",
"N N 8 7 7 4 e e w 4  . .P } < > - - , < , 3 i i i i O O X . k M ",
"v B 8 4 7 2 e e e 3  .P P  .* - - - , 3 , 3 i i i i O X X X j M ",
"N N 8 2 8 4 e e e 4 _  . .} 3 - - - , 3 , 3 y u y y O X X X k M ",
"N N y u u y r e e r T I E U 3 3 3 3 . . X & k / k k j p p p * : ",
"c N y u 9 p r r r r k ~ k k 4 3 3 3 X X . . h Z Z Z j j x j * : ",
"N N u 9 u y r r r r k ~ k h 3 < e 3 . X X X / Z U h j b b j & : ",
"N N u 9 9 y r r e 4 k ~ ~ k 2 < 3 3 X X X X U U U h j j j p & : ",
"t N < * * ; > > w - p u u u 7 7 2 2 + # # + r r e r 8 7 4 4   $ ",
"t N - % % & @ @ @ O r y y y 7 7 2 2 + # # # w w w w 6 5 5 6   o "
};
