/* XPM */
static char *_139512277024a59fb72c4f3904ac8c0LH8s6MhZKNGpc3oF[] = {
/* columns rows colors chars-per-pixel */
"32 32 101 2 ",
"   c #003524",
".  c #003B26",
"X  c #013B2B",
"o  c #1A322B",
"O  c #013E32",
"+  c #0A3D34",
"@  c #003D3A",
"#  c #143933",
"$  c #183A30",
"%  c #004226",
"&  c #00432B",
"*  c #004C2B",
"=  c #00502B",
"-  c #004534",
";  c #004B34",
":  c #0D4C35",
">  c #00423A",
",  c #004F39",
"<  c #005435",
"1  c #0D5135",
"2  c #005B34",
"3  c #00533A",
"4  c #015C3B",
"5  c #145635",
"6  c #15563A",
"7  c #185438",
"8  c #006135",
"9  c #00613B",
"0  c #006A3F",
"q  c #00773F",
"w  c #007B3D",
"e  c #024A43",
"r  c #005543",
"t  c #005A42",
"y  c #035E5E",
"u  c #006445",
"i  c #006B43",
"p  c #00634A",
"a  c #026D4D",
"s  c #126547",
"d  c #166649",
"f  c #196549",
"g  c #1F6F4B",
"h  c #007742",
"j  c #007B42",
"k  c #00744D",
"l  c #007B4B",
"z  c #18754F",
"x  c #19794E",
"c  c #066D50",
"v  c #00645F",
"b  c #006B5D",
"n  c #007250",
"m  c #007B50",
"M  c #216D4C",
"N  c #27764D",
"B  c #277950",
"V  c #006263",
"C  c #046561",
"Z  c #056562",
"A  c #086363",
"S  c #0A6562",
"D  c #0D6364",
"F  c #006860",
"G  c #156563",
"H  c #166662",
"J  c #00823B",
"K  c #00833B",
"L  c #00823D",
"P  c #00843E",
"I  c #00893E",
"U  c #008E3C",
"Y  c #008C3F",
"T  c #00923C",
"R  c #00903E",
"E  c #009D3E",
"W  c #008243",
"Q  c #008441",
"!  c #008244",
"~  c #008247",
"^  c #008446",
"/  c #008A40",
"(  c #008D43",
")  c #008945",
"_  c #008D44",
"`  c #00824A",
"'  c #008449",
"]  c #00874C",
"[  c #008D4A",
"{  c #178D46",
"}  c #009142",
"|  c #009542",
" . c #009147",
".. c #009D41",
"X. c #009845",
"o. c #1B9044",
"O. c #008852",
"+. c #008C51",
"@. c #008955",
"#. c #008A56",
"$. c #008F54",
/* pixels */
"y y y V v y Z Z v Z Z Z C C y V V y V V V V V V Z V V b Z C S G ",
"V V V V V V V V V V V V V V V V V V V V V V V V V V V V V V V S ",
"- < u i i u 4 9 9 9 V V V V V V V V V V V V V V V V V V V V V V ",
"% * i i i i 4 9 8 8 v V V V V V V V V V V V V V V V V V V V V Z ",
"% * u i i 0 2 8 8 8 Z V V V V V V V V V V V V V V V V V V V V V ",
"& = u p u i 4 4 4 2 v V V V Z Z V V V V V V V V V V V V V V V A ",
"> - t t t t r r r 4 l ! W Q ' ' ` ^ V V V V V V V V V V V V V V ",
"@ > t t t r r r r t ^ / Q / Q / W ^ V V V V V V V V V V V V V A ",
"@ > t t t t r r e r ^ I / / ^ ^ Q ! V V V V V V V V V V V V V V ",
"@ - t t t t 3 4 t 4 l ! W W ' ` ` ` V V V V V V V V V V V V V A ",
"p i l l l ^ X.X.X. .; ; - - & - ; & ) ) ) ^ b v V V V V V V V V ",
"u i ` ` ` Q ..E E T ; > > > - > > ; ( U T ( V V V V V V V V V A ",
"p u ` l ! Q ....E | ; @ > > > > > ; I U T _ b V V V V V V V V V ",
"u i l j l ! | T | _ < ; ; ; ; , , ; I / ( ( b V V V V V V V V A ",
"8 8 2 3 3 3 < ; ; * j j j j O.@.#.@.i h h u ` ) [ ) F V V V V V ",
"2 8 3 3 3 3 - > - ; w P P P O.+.$.$.i u i i ^ ( ( ( F V V V V A ",
"2 2 3 3 3 3 ; - - ; j K K W O.$.$.$.i i i u ) ( ( U b Z V V V V ",
"2 4 3 3 3 3 - - - ; q W w w O.@.@.@.k i h 0 ^ ( _ / b V V V V V ",
"+ X X . . X , , , ; . . % . < 2 2 2 U ( T ( w j h h v V V V V A ",
"$ $ X X . X , , < , . .   . 3 < < < T T E T w h h h v Z V V V A ",
"# # X X . . , , , , .   . . , < < 2 U T T T w h h h v V V V V V ",
"+ + X X & & 3 3 3 , % . . % 3 2 2 < U T T U w j h q v Z V V V V ",
"e t ! ! W l i p p u ] U R _ l l l k i 0 0 0 ) [ [ [ } ( U ) V A ",
"e t ! Q W ' i p p u | R | | j l l l i 0 9 0 '  .[  .T T ( [ V V ",
"e r ` Q P Q p p p u _ T T T l m l l 0 0 0 0 ] [ [ [ T T ( ( V V ",
"e r j j Q l u p t u [ ( } _ l l m l i i i 0 ) ( [  .U U T ( V V ",
"6 9 k k k a X O O - t t t t l k l k h q w h U T T T T U U I V V ",
"6 8 k n c a X X X O 3 4 t 4 n l k l w w w w U T T T T T T ( V V ",
"7 4 k k n c X X X O r r 3 t k l l k j h w w U T T T T T T } V V ",
"7 4 a a n c X X . & 4 r t t k k k k h h q q I T T U T T T _ V V ",
"  . & & * * l l l k i i i i = = * = 0 0 0 i h j j w U T T ( V V ",
"o $ : : : : B N N N z N M M 1 1 1 : f d d s z x x x { o.o.{ D G "
};
