/* XPM */
static char *_94139bc73f54bc0e0fbd4a6743b48e6uEopKdkfmPME2ubt[] = {
/* columns rows colors chars-per-pixel */
"32 32 80 1 ",
"  c #003524",
". c #003B26",
"X c #013B2B",
"o c #1A322B",
"O c #013E32",
"+ c #0A3D34",
"@ c #003D3A",
"# c #143933",
"$ c #183A30",
"% c #004226",
"& c #00432B",
"* c #004C2B",
"= c #00502B",
"- c #004534",
"; c #004B34",
": c #0D4C35",
"> c #00423A",
", c #004F39",
"< c #005435",
"1 c #0D5135",
"2 c #005B34",
"3 c #00533A",
"4 c #015C3C",
"5 c #145635",
"6 c #15563A",
"7 c #185438",
"8 c #006235",
"9 c #00613A",
"0 c #006A3E",
"q c #007136",
"w c #00733C",
"e c #007D3B",
"r c #024A43",
"t c #005543",
"y c #005A43",
"u c #005F5F",
"i c #006345",
"p c #006B43",
"a c #00634A",
"s c #006C4A",
"d c #126547",
"f c #196549",
"g c #1F6F4B",
"h c #007542",
"j c #007B43",
"k c #00734C",
"l c #007B4B",
"z c #167F4C",
"x c #19794E",
"c c #066D50",
"v c #00615C",
"b c #007250",
"n c #007B50",
"m c #1C7B52",
"M c #216D4C",
"N c #27764D",
"B c #28774D",
"V c #277950",
"C c #337955",
"Z c #36775B",
"A c #35785A",
"S c #006263",
"D c #407A5B",
"F c #00823D",
"G c #008D3C",
"H c #00913C",
"J c #009D3E",
"K c #008444",
"L c #008C43",
"P c #00824A",
"I c #008C4A",
"U c #15804C",
"Y c #19804F",
"T c #1A8B49",
"R c #009242",
"E c #009A43",
"W c #1B9044",
"Q c #008754",
"! c #008B53",
"~ c #178050",
/* pixels */
"SSSSSSSSSSSSSSSSSSSSSSSSSSvSSSSS",
"uuuuuvSSSSSSSSSSSSSSSSSSSSvvSvSS",
"%*pppsSSSSSSSSvvvvSSSSeeFeGGGGUC",
"%*p0paSSSSSSSSy998SSSSheeFGGGHUC",
"%*ipppyiiiipsp4999ILLIeFeeGGGGUC",
"&*ispi42420qqw8888LGHLFeeeGGGGUC",
"@-yyyyttt4KFKFLPLP9yyi0wqqGHHGzC",
"@>tyyttttyPKGKKKPLyyyywhewLHHGzC",
"@>yyyyttrtPGLLKLLPyttypwhwGGHHzC",
">-yyyy4344lKjKPPPP444iphhwLHHLzA",
"yplllPEEER;--;&--*ILLIhsssLHHLzC",
"apPPKKEJER;>>>->>-LGHLksssLGHHUC",
"aplPKKEJJR;@>>>>>-GGHLksppGHHHUC",
"ipljljRHRR<;;;;,;<KLGLkpkpGHGGzC",
"88<434;;;=hjjjQQ!!phppPLLKHHHGUC",
"283333;>;;eKFFI!!!ppspLLLGHHHHUC",
"28333,---;eFFF!!!!ssspPRLGHHHHUA",
"223333;--;hjFe!Q!!hph0KLLGHHHHUC",
"+XXXXX,,<;X%.%<222LGHRjjhhwwqwmC",
"$$X.XX,,,,.  .3<<<HHHHejhhwwwwVA",
"$#XXXX<33,. ..;3<2GHHHehhhw0w0xA",
"++XX.&,33,...%322<GGHHehhewwwwmA",
"ryKjKlaaaiIRRRlllkp000PIIILHHLzA",
"ryKKFKsaapRHHRllnn0000ILIIRHHHmZ",
"rtPKFPiaapLHHHlPln0pppIIIIGHHHmA",
"rtjjKjiayiILRLllnlpp00LLIIHHHL~A",
"64kkksX-O-y4yikkkkjeweGHJHHHHR~A",
"59kkbcXXXO4tyykklkjhweHHHHHHHR~Z",
"54kbbcXOXOtt4yklnlheweGHHHHHHR~A",
"74bkccXXX&4tyykkkkhhehLHGHHHHGYA",
"  &&&*lhkjpppp==**p00phjjeHHHHYC",
"o$:::1VBBNggMM1111ffddxxxxTWWWCD"
};
