/* XPM */
static char *bf5379821f8a4660a125d613c10ddeb8FQQdk5xaZ05W9A9X[] = {
/* columns rows colors chars-per-pixel */
"32 32 43 1 ",
"  c #0A0D1A",
". c #0B0E1C",
"X c #0B0F1D",
"o c #0C101F",
"O c #0C1020",
"+ c #0D1021",
"@ c #0E1224",
"# c #0F1327",
"$ c #0F1329",
"% c #0F1428",
"& c #0F1429",
"* c #10142A",
"= c #11172E",
"- c #12172E",
"; c #12182F",
": c #121730",
"> c #121831",
", c #131931",
"< c #131A35",
"1 c #151B36",
"2 c #151C37",
"3 c #161C38",
"4 c #161D3B",
"5 c #171E3B",
"6 c #171E3C",
"7 c #181F3E",
"8 c #18203F",
"9 c #181F40",
"0 c #182040",
"q c #182041",
"w c #1A2245",
"e c #1B2345",
"r c #1B2447",
"t c #1B2348",
"y c #1B2448",
"u c #1C2448",
"i c #1C244A",
"p c #1C254B",
"a c #1E274F",
"s c #1E284F",
"d c #1E2750",
"f c #1F2851",
"g c #1F2952",
/* pixels */
"06842=4964@O0006;===:=66%0iii0>>",
"964>@@,44>fw%1>2%0udt114%678872;",
"44=>wa1*@==$O:>%8fduy>>*>448484*",
">=0w0777a><@6ff=6i099@6f1>>4742@",
",=1,@+.@=+=1%44@>876:$i86+>#+*@+",
"i7>o=4i0>4dd0OO$@=11*==>@4s8+0ri",
"i81=isai4106w@wf0@==td0<@00+6sis",
"72oeaiw0:=;4:=ii8>=7uwdf8*4@i8rw",
"@%+47094*75=@1w6;2*5e08i4o;@*>22",
"766%547=4aau=266+*o48088%=>46>>+",
">1:=*==.7suu4@;>>87*=14>*6sffp8;",
">O>1i1==7i974%2+wsaa7=**1aiipyf8",
"@6addfw==>26>>4*iaeeda4+4f046841",
"@0wwwia2+*+@*4;2ii00w04.194$@$=2",
"6%678871@0i8*;#2ie07777o@487+2w8",
"6%44444*6disi2*+=557421.0ww0+ww0",
"4$.O====6a6wi0@%====+*>*;;44*484",
"=1666=O$9w0606%9a9=.*wsi44#*#;22",
"=6asdy6.6w666>=ieaa1>siise*44%o;",
"=frtwa0%16646%6w0ie4>i0wi4ois;2r",
"%>==1=@.%>64=+60797O:u0072$f8;y6",
">>=1>&$06>@==@*6577O19694<#i6*>>",
"+6aaf660w9>06%+*:4=O:6964;404=>2",
"%006wy:+*%%%.=80=*77*:>>==761>aa",
"+9799w==0aa01+4a=6id:@.y7*84%*44",
"::1797@9siisd%=8=@==@=4>>*8;4w1@",
"w4==2+@090097@44=10:.*<1++>+ii9=",
"0ie1;>>>====*====wf0*0aa7%>>>>>%",
"8aafa:1id0@6sf22*w72%;42%#7762;>",
"608w0:4fw7;w6062.$*=<@==;1aaf81;",
"86784;48971@%@*>*77dw%af6>4444@4",
"r0547>2466>=aa2=*aa94$996@;>=>@0"
};
